<ttFont>
<head>
    <!-- Most of this table will be recalculated by the compiler -->
    <tableVersion value="1.0"/>
    <fontRevision value="1.0"/>
    <checkSumAdjustment value="0xCF1358FE"/>
    <magicNumber value="0x5F0F3CF5"/>
    <flags value="00000000 00000011"/>
    <unitsPerEm value="1000"/>
    <created value="Mon Mar  1 14:00:01 2004"/>
    <modified value="Mon Mar  1 14:00:01 2004"/>
    <xMin value="-78"/>
    <yMin value="-271"/>
    <xMax value="1000"/>
    <yMax value="919"/>
    <macStyle value="00000000 00000000"/>
    <lowestRecPPEM value="3"/>
    <fontDirectionHint value="2"/>
    <indexToLocFormat value="0"/>
    <glyphDataFormat value="0"/>
  </head>
          <CharString index="0">
            -49 callsubr
            61 60 2 61 hhcurveto
            61 60 -2 -3 59 39 callgsubr
            -1 11 9 vvcurveto
            9 1 13 2 9 vhcurveto
            -12 -63 -118 -1 -89 hhcurveto
            -1 25 -1 49 76 vvcurveto
            96 0 25 1 24 vhcurveto
            48 126 -2 -7 69 -64 callgsubr
            11 2 10 vhcurveto
            -5 -59 -66 -5 -118 hhcurveto
            25 -1 55 52 vvcurveto
            49 3 35 1 43 vhcurveto
            130 49 -7 -6 84 -64 callgsubr
            10 2 10 vhcurveto
            -3 -59 -49 callgsubr
            -85 -46 callgsubr
            return
          </CharString>
          <CharString index="1">
            -2 callgsubr
            vstem
            -107 callsubr
            return
          </CharString>
          <CharString index="2">
            47 vstem
            619 360 rmoveto
            -126 0 -205 -219 -223 0 177 136 148 6 136 6 59 vhcurveto
            -3 -13 -16 -2 -14 hhcurveto
            -16 -20 2 3 -16 hvcurveto
            2 -58 4 -91 -110 -50 -5 -46 -62 vvcurveto
            -194 88 -92 198 180 103 111 177 2 vhcurveto
            2 146 8 176 8 93 rrcurveto
            -3 -9 -11 24 callgsubr
            -14 40 callsubr
            -13 hvcurveto
            6 -39 0 -96 -190 vvcurveto
            return
          </CharString>
          <CharString index="3">
            -98 callgsubr
            -39 callgsubr
            -40 callsubr
            -45 callgsubr
            vhcurveto
            return
          </CharString>
          <CharString index="4">
            hstem
            95 82 442 -105 callsubr
            return
          </CharString>
          <CharString index="5">
            rmoveto
            42 hlineto
            147 94 rlineto
            16 10 20 13 24 vvcurveto
            21 -20 11 -13 -15 -16 -10 -14 -14 vhcurveto
            return
          </CharString>
          <CharString index="6">
            -102 callsubr
            endchar
          </CharString>
          <CharString index="7">
            -30 callgsubr
            -106 callsubr
            return
          </CharString>
          <CharString index="8">
            102 -85 callsubr
            104 vlineto
            -78 callsubr
            -70 -60 vvcurveto
            return
          </CharString>
          <CharString index="9">
            rmoveto
            -106 callgsubr
            return
          </CharString>
          <CharString index="10">
            rmoveto
            42 hlineto
            -147 149 rlineto
            14 -14 -16 10 -15 hhcurveto
            -13 -20 -11 -21 -24 20 -13 16 -10 hvcurveto
            endchar
          </CharString>
          <CharString index="11">
            -197 hmoveto
            -88 callsubr
          </CharString>
          <CharString index="12">
            6 49 -5 3 rlineto
            -59 callsubr
            81 104 9 0 9 1 10 hvcurveto
            1 44 43 2 44 hhcurveto
            71 71 -2 -1 72 hvcurveto
            1 13 1 13 13 vvcurveto
            return
          </CharString>
          <CharString index="13">
            -95 callsubr
            111 -67 93 -140 return
          </CharString>
          <CharString index="14">
            86 4 87 4 86 -87 callgsubr
            return
          </CharString>
          <CharString index="15">
            17 callsubr
            15 hhcurveto
            15 15 -51 callsubr
            -6 return
          </CharString>
          <CharString index="16">
            -14 callsubr
            -103 callsubr
            return
          </CharString>
          <CharString index="17">
            -157 -1 -8 -20 -43 vhcurveto
            -36 -17 -38 -28 -56 hhcurveto
            -39 -28 16 21 -19 hvcurveto
            -17 19 -14 33 69 vvcurveto
            98 4 102 6 78 -16 callgsubr
            -13 hhcurveto
            -13 -15 -28 callgsubr
            return
          </CharString>
          <CharString index="18">
            -60 -2 -70 -6 -57 -92 callsubr
            57 -2 70 60 vvcurveto
            return
          </CharString>
          <CharString index="19">
            -106 callgsubr
            endchar
          </CharString>
          <CharString index="20">
            2 -6 -8 1 -6 hhcurveto
            -38 -40 -22 -24 -24 hvcurveto
            -53 -53 -34 -111 -78 vvcurveto
            -23 -25 1 -24 hhcurveto
            -24 callgsubr
            -6 vhcurveto
            1 24 24 2 24 hhcurveto
            -146 0 -143 -9 -147 -12 callsubr
            14 hvcurveto
            -4 147 0 144 145 vvcurveto
            34 35 -2 -1 34 hvcurveto
            -1 6 -1 7 7 vvcurveto
            6 -9 callgsubr
            -34 -35 -1 -34 hhcurveto
            return
          </CharString>
          <CharString index="21">
            265 279 rmoveto
            -107 0 -106 -8 -71 -81 callsubr
            -5 62 -3 135 98 vvcurveto
            43 84 72 116 127 195 rrcurveto
            -3 -13 -13 -2 -13 hhcurveto
            -13 -13 2 3 -13 hvcurveto
            -54 -114 -73 -135 -62 -97 -69 119 -63 113 -58 114 rrcurveto
            -3 -18 -19 -2 -18 hhcurveto
            -18 -19 2 3 -18 hvcurveto
            42 -63 161 -274 40 -69 rrcurveto
            return
          </CharString>
          <CharString index="22">
            182 rmoveto
            -89 callsubr
            return
          </CharString>
          <CharString index="23">
            vstem
            222 -6 rmoveto
            -37 -87 -44 -88 -53 -87 rrcurveto
            -60 callgsubr
            42 136 244 532 36 73 -37 callgsubr
            -40 -126 -54 -143 -55 -115 -55 133 -53 125 -41 126 rrcurveto
            -3 -15 -16 -3 callgsubr
            3 callgsubr
            -15 hvcurveto
            28 -63 126 -296 46 -120 rrcurveto
            return
          </CharString>
          <CharString index="24">
            -82 callgsubr
            6 return
          </CharString>
          <CharString index="25">
            -32 callgsubr
            -94 callgsubr
            return
          </CharString>
          <CharString index="26">
            vhcurveto
            -80 callgsubr
            return
          </CharString>
          <CharString index="27">
            -17 31 22 -6 19 hhcurveto
            79 25 75 32 5 hvcurveto
            -29 hlineto
            -26 -8 -18 -24 -31 hhcurveto
            -17 -12 5 18 -37 hvcurveto
            return
          </CharString>
          <CharString index="28">
            -92 -2 -129 -6 -67 -92 callsubr
            return
          </CharString>
          <CharString index="29">
            60 2 70 6 57 -83 callsubr
            -57 2 return
          </CharString>
          <CharString index="30">
            -86 callgsubr
            endchar
          </CharString>
          <CharString index="31">
            -15 -2 -15 -70 callgsubr
            return
          </CharString>
          <CharString index="32">
            86 373 -74 callgsubr
            return
          </CharString>
          <CharString index="33">
            16 -21 690 -20 -84 callgsubr
            return
          </CharString>
          <CharString index="34">
            2 129 6 67 -83 callsubr
            -67 -17 callgsubr
            return
          </CharString>
          <CharString index="35">
            -18 callgsubr
            -102 callgsubr
            return
          </CharString>
          <CharString index="36">
            -107 -247 -21 741 -20 hstem
            22 456 -84 callsubr
            return
          </CharString>
          <CharString index="37">
            hstem
            34 432 vstem
            34 -5 rmoveto
            2 59 59 3 59 hhcurveto
            83 84 -3 -2 83 hvcurveto
            -2 -11 callgsubr
            2 9 vhcurveto
            -13 -140 -64 -1 -109 hhcurveto
            50 70 161 212 107 139 rrcurveto
            15 vlineto
            -4 -42 -32 -1 -57 hhcurveto
            -123 -85 1 4 -42 hvcurveto
            2 -11 1 -9 -9 vvcurveto
            -10 -1 -9 -2 -9 vhcurveto
            7 76 176 8 19 hhcurveto
            -72 -97 -135 -186 -115 -139 rrcurveto
            return
          </CharString>
          <CharString index="38">
            rmoveto
            3 8 7 2 8 hhcurveto
            8 7 -2 -3 8 hvcurveto
            277 712 rlineto
            -3 -8 -7 -2 -8 hhcurveto
            -8 -7 2 3 -8 hvcurveto
            return
          </CharString>
          <CharString index="39">
            rmoveto
            -120 105 rlineto
            -37 hlineto
            123 -167 rlineto
            67 hlineto
            123 167 rlineto
            -37 hlineto
            endchar
          </CharString>
          <CharString index="40">
            -123 78 -37 62 62 78 37 123 123 -78 37 -62 -62 -78 -37 -123 vhcurveto
            68 hmoveto
            79 16 57 56 56 16 -57 -79 -79 -16 -57 -56 -56 -16 57 79 vhcurveto
            return
          </CharString>
          <CharString index="41">
            -7 callsubr
            -46 callgsubr
            return
          </CharString>
          <CharString index="42">
            -182 127 -67 116 116 127 67 182 return
          </CharString>
          <CharString index="43">
            rmoveto
            -93 callgsubr
            return
          </CharString>
          <CharString index="44">
            3 13 12 -23 callsubr
            39 callsubr
            return
          </CharString>
          <CharString index="45">
            -36 callsubr
            118 37 -105 -112 return
          </CharString>
          <CharString index="46">
            35 12 10 11 31 hhcurveto
            16 14 -4 -19 35 hvcurveto
            return
          </CharString>
          <CharString index="47">
            76 149 rmoveto
            -104 63 -60 104 63 59 34 62 34 vhcurveto
            2 hlineto
            return
          </CharString>
          <CharString index="48">
            -40 -35 -62 -31 -53 hhcurveto
            -111 -62 return
          </CharString>
          <CharString index="49">
            53 2 52 4 51 vhcurveto
            -11 hlineto
            -41 -23 -57 -23 -50 -16 rrcurveto
            -10 vlineto
            8 -4 8 -8 4 -7 72 37 rcurveline
            4 -2 rlineto
            return
          </CharString>
          <CharString index="50">
            162 26 -4 -3 37 hvcurveto
            -3 -11 callgsubr
            3 9 vhcurveto
            -3 -36 -26 -4 -163 hhcurveto
            82 vlineto
            58 3 59 2 58 vhcurveto
            169 31 -7 -8 40 6 callgsubr
            11 37 callgsubr
            11 3 10 vhcurveto
            -3 -54 return
          </CharString>
          <CharString index="51">
            rmoveto
            -79 callgsubr
            63 2 vlineto
            -63 31 52 -35 74 hhcurveto
            105 111 82 170 172 -102 74 -102 -101 -48 -66 -42 -20 hvcurveto
            -2 return
          </CharString>
          <CharString index="52">
            -48 callsubr
            -104 vlineto
            -25 callgsubr
            return
          </CharString>
          <CharString index="53">
            rmoveto
            -111 -159 16 -2 14 -12 7 -13 rlinecurve
            126 187 -120 191 -5 -12 -17 -12 -16 -2 rlinecurve
            return
          </CharString>
          <CharString index="54">
            rmoveto
            -51 -1 -51 -4 -54 vhcurveto
            -60 callgsubr
            -4 53 -2 52 51 vvcurveto
            100 vlineto
            return
          </CharString>
          <CharString index="55">
            rmoveto
            120 -191 5 12 17 12 16 2 rlinecurve
            -106 166 111 159 -16 2 -14 12 -7 13 rlinecurve
            return
          </CharString>
          <CharString index="56">
            -2 -3 15 hvcurveto
            return
          </CharString>
          <CharString index="57">
            3 15 15 2 return
          </CharString>
          <CharString index="58">
            98 255 rmoveto
            -47 callsubr
            -87 vhcurveto
            3 return
          </CharString>
          <CharString index="59">
            27 1 26 2 27 vhcurveto
            -3 -15 -15 -2 -10 -21 callsubr
            return
          </CharString>
          <CharString index="60">
            -86 -4 -87 -4 return
          </CharString>
          <CharString index="61">
            7 -7 rlineto
            4 6 15 3 22 hhcurveto
            28 23 -11 -29 -27 -27 -15 -33 -31 -26 6 6 -15 hvcurveto
            return
          </CharString>
          <CharString index="62">
            -116 -127 -67 -182 return
          </CharString>
          <CharString index="63">
            23 -5 rmoveto
            3 50 176 2 104 hhcurveto
            76 63 -2 -3 96 hvcurveto
            -3 11 -2 10 11 vvcurveto
            11 2 10 3 12 vhcurveto
            -9 -70 -182 -9 -102 hhcurveto
            -26 -25 1 2 -32 hvcurveto
            return
          </CharString>
          <CharString index="64">
            16 -21 757 -20 hstem
            102 74 vstem
            102 -57 callgsubr
            return
          </CharString>
          <CharString index="65">
            rmoveto
            -15 callsubr
            -57 -46 -46 -56 vhcurveto
            -41 callgsubr
          </CharString>
          <CharString index="66">
            -175 288 hstem
            30 158 vstem
            30 -26 callsubr
            endchar
          </CharString>
          <CharString index="67">
            227 -154 131 -221 return
          </CharString>
          <CharString index="68">
            rmoveto
            -95 64 -71 97 97 64 71 95 95 -64 71 -97 -97 -64 -71 -95 vhcurveto
            74 hmoveto
            74 27 68 60 60 27 -68 -74 -74 -27 -68 -60 -60 -27 68 74 vhcurveto
            return
          </CharString>
          <CharString index="69">
            3 -10 2 -11 -10 vvcurveto
            -10 -2 -11 -3 -10 vhcurveto
            8 76 150 7 96 hhcurveto
            21 25 -1 -1 24 hvcurveto
            -51 -79 -224 -329 -158 -216 rrcurveto
            return
          </CharString>
          <CharString index="70">
            rmoveto
            -198 160 -160 198 198 160 160 198 198 -160 160 -198 -198 -160 -160 -198 vhcurveto
            return
          </CharString>
          <CharString index="71">
            112 37 105 118 return
          </CharString>
          <CharString index="72">
            40 9 48 33 59 vvcurveto
            60 -51 28 -64 -59 -29 -20 -16 -18 vhcurveto
            15 -32 5 1 rlineto
            22 9 28 21 35 hhcurveto
            35 32 -22 -47 hvcurveto
            return
          </CharString>
          <CharString index="73">
            -58 0 8 -58 hvcurveto
            3 -12 2 -12 -13 vvcurveto
            -12 -2 -12 -3 -12 vhcurveto
            return
          </CharString>
          <CharString index="74">
            3 9 8 2 9 hhcurveto
            9 8 -2 -3 9 hvcurveto
            return
          </CharString>
          <CharString index="75">
            3 11 12 10 callsubr
            11 return
          </CharString>
          <CharString index="76">
            -249 -243 -81 callgsubr
            endchar
          </CharString>
          <CharString index="77">
            -51 -15 32 434 32 return
          </CharString>
          <CharString index="78">
            hlineto
            -26 -121 -3 -9 -6 -15 rrcurveto
            1 7 7 2 7 hhcurveto
            7 7 -2 -1 7 hvcurveto
            2 15 5 23 22 107 rrcurveto
            return
          </CharString>
          <CharString index="79">
            10 0 callgsubr
            return
          </CharString>
          <CharString index="80">
            74 vstem
            84 -20 callsubr
            return
          </CharString>
          <CharString index="81">
            -168 -81 callgsubr
            return
          </CharString>
          <CharString index="82">
            -77 callgsubr
            endchar
          </CharString>
          <CharString index="83">
            -51 -15 52 -21 -8 callsubr
            return
          </CharString>
          <CharString index="84">
            2 12 hhcurveto
            12 return
          </CharString>
          <CharString index="85">
            3 10 15 3 16 hhcurveto
            40 41 -21 -66 -55 -40 -41 -62 -41 -31 20 15 -14 hvcurveto
            -5 hlineto
            endchar
          </CharString>
          <CharString index="86">
            -5 callgsubr
            -70 -60 vvcurveto
            return
          </CharString>
          <CharString index="87">
            283 rmoveto
            -79 callsubr
            return
          </CharString>
          <CharString index="88">
            10 callsubr
            11 11 -13 callgsubr
            return
          </CharString>
          <CharString index="89">
            2 callsubr
            -12 -8 callgsubr
            return
          </CharString>
          <CharString index="90">
            62 65 29 32 40 return
          </CharString>
          <CharString index="91">
            -1 7 -1 7 7 vvcurveto
            7 -9 callgsubr
            return
          </CharString>
          <CharString index="92">
            -56 46 -46 56 57 46 46 56 56 -46 46 -56 return
          </CharString>
          <CharString index="93">
            171 -18 47 656 -20 return
          </CharString>
          <CharString index="94">
            59 91 rmoveto
            -20 -11 -36 -8 -17 vhcurveto
            -16 28 40 -17 61 hhcurveto
            111 69 82 76 hvcurveto
            return
          </CharString>
          <CharString index="95">
            17 callsubr
            14 hhcurveto
            14 15 -2 -3 return
          </CharString>
          <CharString index="96">
            12 -13 callgsubr
            return
          </CharString>
          <CharString index="97">
            35 88 310 88 return
          </CharString>
          <CharString index="98">
            hstemhm
            42 82 -38 11 return
          </CharString>
          <CharString index="99">
            -21 478 -20 return
          </CharString>
          <CharString index="100">
            hvcurveto
            4 -86 return
          </CharString>
          <CharString index="101">
            rmoveto
            -86 callgsubr
            return
          </CharString>
          <CharString index="102">
            158 -158 330 -158 158 return
          </CharString>
          <CharString index="103">
            -47 callsubr
            -86 vhcurveto
            return
          </CharString>
          <CharString index="104">
            -21 690 -20 return
          </CharString>
          <CharString index="105">
            734 rlineto
            -3 -8 -8 -2 -7 hhcurveto
            -8 -8 2 3 42 callsubr
          </CharString>
          <CharString index="106">
            16 -3 callsubr
            return
          </CharString>
          <CharString index="107">
            378 hstemhm
            96 163 -163 308 -163 163 hintmask 10100000
            return
          </CharString>
          <CharString index="108">
            177 139 30 callsubr
            -144 -177 return
          </CharString>
          <CharString index="109">
            -2 -11 hhcurveto
            -11 return
          </CharString>
          <CharString index="110">
            -16 callgsubr
            -14 hhcurveto
            -14 -14 -28 callgsubr
            8 return
          </CharString>
          <CharString index="111">
            -70 callgsubr
            6 return
          </CharString>
          <CharString index="112">
            1 -7 1 -7 return
          </CharString>
          <CharString index="113">
            16 -21 436 return
          </CharString>
          <CharString index="114">
            -169 236 73 -124 vvcurveto
            -59 -47 -31 -50 vhcurveto
            return
          </CharString>
          <CharString index="115">
            6 callsubr
            37 216 71 -3 -20 23 -20 hstemhm
            return
          </CharString>
          <CharString index="116">
            169 -236 -80 130 vvcurveto
            59 46 25 39 vhcurveto
            return
          </CharString>
          <CharString index="117">
            2 11 hhcurveto
            return
          </CharString>
          <CharString index="118">
            2 -6 1 -6 -8 vvcurveto
            -6 -1 -5 -2 -6 vhcurveto
            return
          </CharString>
          <CharString index="119">
            -10 callgsubr
            -7 vhcurveto
            return
          </CharString>
          <CharString index="120">
            -274 559 173 hstem
            return
          </CharString>
          <CharString index="121">
            hintmask 01100000
            hintmask 10100000
            return
          </CharString>
          <CharString index="122">
            -2 -15 hhcurveto
            return
          </CharString>
          <CharString index="123">
            57 97 302 439 78 86 rrcurveto
            18 vlineto
            return
          </CharString>
          <CharString index="124">
            vhcurveto
            -50 callsubr
            return
          </CharString>
          <CharString index="125">
            102 95 102 return
          </CharString>
          <CharString index="126">
            hstemhm
            45 68 -54 12 210 68 -63 12 return
          </CharString>
          <CharString index="127">
            104 42 60 93 vhcurveto
            66 43 -54 -98 hvcurveto
            return
          </CharString>
          <CharString index="128">
            -1 callsubr
            hstem
            return
          </CharString>
          <CharString index="129">
            506 52 -506 hlineto
            return
          </CharString>
          <CharString index="130">
            -2 -3 14 hvcurveto
            return
          </CharString>
          <CharString index="131">
            7 1 7 return
          </CharString>
          <CharString index="132">
            24 183 24 -9 -20 187 24 return
          </CharString>
          <CharString index="133">
            -274 -121 27 750 27 hstem
            return
          </CharString>
          <CharString index="134">
            17 -2 -3 return
          </CharString>
          <CharString index="135">
            0 -20 hstemhm
            return
          </CharString>
          <CharString index="136">
            104 rmoveto
            2 38 86 2 78 hhcurveto
            return
          </CharString>
          <CharString index="137">
            144 177 177 139 return
          </CharString>
          <CharString index="138">
            73 hlineto
            21 10 40 9 21 vhcurveto
            return
          </CharString>
          <CharString index="139">
            hvcurveto
            5 callsubr
            return
          </CharString>
          <CharString index="140">
            57 57 2 57 hhcurveto
            return
          </CharString>
          <CharString index="141">
            38 callgsubr
            vstem
            return
          </CharString>
          <CharString index="142">
            367 -21 78 32 return
          </CharString>
          <CharString index="143">
            3 5 5 hvcurveto
            return
          </CharString>
          <CharString index="144">
            -1 -1 -2 -1 return
          </CharString>
          <CharString index="145">
            0 41 callgsubr
            return
          </CharString>
          <CharString index="146">
            12 -2 -3 return
          </CharString>
          <CharString index="147">
            -14 2 3 return
          </CharString>
          <CharString index="148">
            254 rmoveto
            return
          </CharString>
          <CharString index="149">
            -8 hvcurveto
            endchar
          </CharString>
        <CharString name=".notdef">
          endchar
        </CharString>
        <CharString name=".null">
          -607 endchar
        </CharString>
        <CharString name="A">
          42 callgsubr
          270 42 391 -20 -102 callgsubr
          endchar
        </CharString>
        <CharString name="AE">
          226 -5 47 207 42 48 42 226 78 -47 47 hstemhm
          451 82 hintmask 11101100
          451 246 rmoveto
          -84 0 -83 -8 -84 vhcurveto
          3 33 callsubr
          56 57 -2 -3 58 -27 callgsubr
          101 vlineto
          -57 callsubr
          -56 -2 -56 hhcurveto
          -57 -56 2 3 -56 hvcurveto
          -144 -228 -183 -289 -122 -173 rrcurveto
          -50 callsubr
          15 hhcurveto
          14 13 23 callsubr
          41 86 46 85 53 86 rrcurveto
          231 36 rmoveto
          -209 6 rlineto
          hintmask 11110100
          198 313 rlineto
          11 hlineto
          endchar
        </CharString>
        <CharString name="Aacute">
          -72 callsubr
          -51 168 -101 callsubr
        </CharString>
        <CharString name="Acircumflex">
          -18 callgsubr
          158 62 -102 callgsubr
          137 168 -89 callgsubr
        </CharString>
        <CharString name="Adieresis">
          -18 callgsubr
          80 102 hstem
          184 18 callsubr
          vstem
          -107 callgsubr
          65 246 -104 callgsubr
        </CharString>
        <CharString name="Agrave">
          -72 callsubr
          44 168 -97 callsubr
        </CharString>
        <CharString name="Aring">
          -18 callgsubr
          37 42 120 42 hstemhm
          231 42 121 42 hintmask 11011110
          hintmask 11111110
          -107 callgsubr
          -85 41 callsubr
          hintmask 11011110
          -15 callsubr
          vhcurveto
          hintmask 11111110
          -57 -46 -46 -56 hvcurveto
          hintmask 11011110
          -41 callgsubr
        </CharString>
        <CharString name="Atilde">
          -18 callgsubr
          78 57 -11 57 hstemhm
          17 633 hintmask 11110100
          -107 callgsubr
          hintmask 11101100
          -117 193 rmoveto
          -61 callsubr
          hintmask 11110100
          -80 callsubr
          hintmask 11101100
          -63 callgsubr
        </CharString>
        <CharString name="B">
          4 -5 37 309 37 270 37 hstemhm
          98 82 245 88 -68 92 hintmask 11110100
          -49 callsubr
          32 33 2 32 32 33 -5 32 hhcurveto
          116 137 53 148 114 -73 48 -119 6 hvcurveto
          2 vlineto
          hintmask 11111000
          100 22 68 55 98 vvcurveto
          113 -97 31 -114 vhcurveto
          -35 -36 -5 -35 hhcurveto
          -35 -36 2 3 -35 hvcurveto
          4 -85 -46 callgsubr
          82 -49 rmoveto
          75 vlineto
          63 4 64 2 63 vhcurveto
          3 19 23 2 34 hhcurveto
          76 87 -18 -108 -111 -97 -33 -94 hvcurveto
          -54 -37 rmoveto
          45 hlineto
          hintmask 11110100
          133 87 -27 -114 -108 -75 -60 -86 -36 -37 2 3 -25 hvcurveto
          -2 67 -4 68 67 vvcurveto
          endchar
        </CharString>
        <CharString name="C">
          60 -18 37 642 37 hstem
          42 98 vstem
          624 98 rmoveto
          -54 callgsubr
          -227 154 -131 211 100 83 37 20 25 hvcurveto
          endchar
        </CharString>
        <CharString name="CR">
          endchar
        </CharString>
        <CharString name="Ccedilla">
          60 -230 37 82 37 56 37 642 37 hstem
          42 98 284 62 vstem
          323 -111 rmoveto
          -46 callsubr
          -14 -32 rlineto
          -40 callgsubr
          21 61 rlineto
          12 hlineto
          100 83 37 20 25 hvcurveto
          9 59 -54 callgsubr
          -210 132 -128 186 -20 hvcurveto
          endchar
        </CharString>
        <CharString name="D">
          171 -5 37 611 20 callgsubr
          426 rmoveto
          -42 callgsubr
          hmoveto
          -52 callgsubr
        </CharString>
        <CharString name="E">
          -100 callsubr
          endchar
        </CharString>
        <CharString name="Eacute">
          -100 callsubr
          100 304 -101 callsubr
        </CharString>
        <CharString name="Ecircumflex">
          -30 callgsubr
          151 62 -106 callsubr
          288 304 -89 callgsubr
        </CharString>
        <CharString name="Edieresis">
          -30 callgsubr
          73 102 hstemhm
          98 82 -63 18 callsubr
          hintmask 11111010
          -107 callsubr
          216 382 -98 callsubr
          hintmask 11110110
          -96 callsubr
        </CharString>
        <CharString name="Egrave">
          -100 callsubr
          195 304 -97 callsubr
        </CharString>
        <CharString name="Eth">
          171 -5 37 333 37 241 20 callgsubr
          365 rmoveto
          64 67 -1 -3 61 hvcurveto
          -2 8 -1 7 8 vvcurveto
          24 callsubr
          2 7 vhcurveto
          -2 -61 -67 -1 -64 hhcurveto
          24 vlineto
          -42 callgsubr
          148 rmoveto
          -31 -30 0 2 -37 hvcurveto
          -24 callgsubr
          -7 vhcurveto
          2 37 30 0 31 hhcurveto
          -111 vlineto
          -52 callgsubr
        </CharString>
        <CharString name="Euro">
          -51 -13 44 222 45 62 45 224 43 hstem
          92 93 325 15 vstem
          548 622 rmoveto
          28 -46 -71 22 -58 hhcurveto
          -136 -107 -115 -151 -30 hvcurveto
          -30 1 -23 2 -10 26 callgsubr
          24 2 33 1 rrcurveto
          -1 -13 -1 -14 -14 vvcurveto
          -20 vlineto
          -26 1 -20 2 -9 26 callgsubr
          25 2 34 1 rrcurveto
          -169 21 102 -97 135 hhcurveto
          60 77 22 29 32 hvcurveto
          2 20 3 19 4 19 -8 12 rcurveline
          -51 -47 -55 -26 -53 hhcurveto
          -90 -76 81 141 -15 hvcurveto
          133 -12 callgsubr
          -142 8 hlineto
          19 1 18 1 17 vhcurveto
          164 -12 callgsubr
          -166 hlineto
          152 21 72 72 86 hhcurveto
          49 60 -32 -55 31 hvcurveto
          15 1 6 27 7 26 10 26 rlinecurve
          endchar
        </CharString>
        <CharString name="F">
          -107 16 -21 344 42 257 47 -2 callgsubr
          vstem
          98 -53 callgsubr
          85 vlineto
          86 105 -1 -7 67 hvcurveto
          -2 10 -2 10 37 callgsubr
          10 2 10 vhcurveto
          -8 -83 -89 -2 -86 hhcurveto
          42 -1 38 46 vvcurveto
          42 1 42 1 47 vhcurveto
          65 142 -6 -7 72 -64 callgsubr
          10 2 10 vhcurveto
          -3 -72 -49 callgsubr
          -86 4 -87 -86 vvcurveto
          endchar
        </CharString>
        <CharString name="G">
          171 36 callgsubr
          hstemhm
          60 98 460 82 -29 12 hintmask 11110000
          hintmask 11101000
          683 563 rmoveto
          3 25 10 34 10 18 rrcurveto
          25 -47 -73 33 -135 hhcurveto
          -237 -44 callgsubr
          -234 148 -124 238 hvcurveto
          hintmask 11110000
          78 120 28 20 57 hvcurveto
          27 -1 28 26 vvcurveto
          108 2 65 2 30 vhcurveto
          -4 -13 -15 -1 -15 hhcurveto
          -16 -19 2 3 -13 hvcurveto
          2 -42 3 -48 -47 vvcurveto
          -41 -1 -40 -1 -40 vhcurveto
          -21 -34 -69 -11 -57 hhcurveto
          -188 -110 120 196 222 127 99 166 hvcurveto
          hintmask 11101000
          101 78 -49 -49 41 hvcurveto
          endchar
        </CharString>
        <CharString name="H">
          171 16 -21 351 42 297 38 callgsubr
          418 82 vstem
          598 391 rmoveto
          -1 -70 -69 -2 -70 hhcurveto
          -70 -69 2 1 -70 hvcurveto
          35 vlineto
          -93 callsubr
          -172 vlineto
          -93 callgsubr
          90 vlineto
          1 70 69 1 70 hhcurveto
          70 69 -1 -1 70 hvcurveto
          -90 vlineto
          -97 callgsubr
          endchar
        </CharString>
        <CharString name="I">
          -74 callsubr
          endchar
        </CharString>
        <CharString name="Iacute">
          -74 callsubr
          -27 305 -101 callsubr
        </CharString>
        <CharString name="Icircumflex">
          -1 callsubr
          171 62 -84 callgsubr
          161 305 -89 callgsubr
        </CharString>
        <CharString name="Idieresis">
          -1 callsubr
          93 102 hstemhm
          -10 102 6 82 7 102 hintmask 11101000
          -91 callgsubr
          hintmask 11110100
          89 383 -104 callgsubr
        </CharString>
        <CharString name="Igrave">
          -74 callsubr
          68 305 -97 callsubr
        </CharString>
        <CharString name="J">
          -144 28 801 34 callsubr
          -22 -144 rmoveto
          123 82 95 119 hvcurveto
          96 -3 140 120 vvcurveto
          -93 callsubr
          -275 vlineto
          -158 -11 -109 -117 vhcurveto
          endchar
        </CharString>
        <CharString name="K">
          4 16 -21 352 16 31 -21 312 -20 hstemhm
          98 82 hintmask 10111000
          90 -5 rmoveto
          -80 callgsubr
          hintmask 11111000
          -4 86 -4 87 86 vvcurveto
          87 vlineto
          3 2 3 3 3 3 -2 -6 6 vhcurveto
          43 -43 151 -184 95 -117 rrcurveto
          3 18 19 2 18 hhcurveto
          20 20 -2 -3 20 hvcurveto
          hintmask 10111000
          -113 128 -111 129 -107 121 72 83 156 148 92 81 rrcurveto
          -3 -16 -16 -2 -16 hhcurveto
          -14 40 callsubr
          -13 hvcurveto
          hintmask 11111000
          -94 -107 -114 -125 -93 -81 rrcurveto
          -7 -8 -2 -2 -4 hhcurveto
          -4 -2 2 6 hvcurveto
          55 vlineto
          -93 callsubr
          -172 vlineto
          hintmask 10111000
          -4 callsubr
          endchar
        </CharString>
        <CharString name="L">
          17 callgsubr
          41 callsubr
          -38 callgsubr
          98 -2 118 168 vvcurveto
          -93 callsubr
          endchar
        </CharString>
        <CharString name="Lslash">
          17 callgsubr
          337 rmoveto
          -33 -19 -33 -18 -37 -20 10 -13 7 -12 5 -12 11 10 31 21 39 23 rrcurveto
          -43 vlineto
          -38 callgsubr
          57 -2 63 96 vvcurveto
          90 vlineto
          50 29 45 26 28 14 -8 12 -6 12 -5 12 -38 -25 -34 -22 -32 -19 rrcurveto
          39 vlineto
          -93 callsubr
          endchar
        </CharString>
        <CharString name="M">
          282 16 -21 26 -21 698 -20 hstemhm
          48 793 hintmask 01110000
          145 698 rmoveto
          hintmask 10110000
          -22 -212 -40 -270 -35 -221 rrcurveto
          12 callgsubr
          1 113 28 238 19 165 rrcurveto
          2 hlineto
          hintmask 01110000
          87 -173 92 -172 78 -166 rrcurveto
          9 hlineto
          79 180 92 164 91 167 rrcurveto
          2 hlineto
          hintmask 10110000
          21 -171 14 -166 14 -179 rrcurveto
          11 callgsubr
          -32 229 -20 218 -30 256 rrcurveto
          -13 hlineto
          -98 -185 -159 -288 -40 -78 -102 187 -94 176 -91 188 rrcurveto
          endchar
        </CharString>
        <CharString name="N">
          16 callgsubr
          hstemhm
          111 42 477 42 hintmask 01011100
          hintmask 10101100
          -43 callgsubr
          hintmask 01011100
          -56 callgsubr
          hintmask 10011100
          8 callgsubr
          endchar
        </CharString>
        <CharString name="Ntilde">
          16 callgsubr
          78 57 -11 57 hstemhm
          111 42 477 42 hintmask 01011011
          hintmask 10101011
          -43 callgsubr
          hintmask 01011011
          -56 callgsubr
          hintmask 10010111
          8 callgsubr
          -390 774 rmoveto
          -61 callsubr
          hintmask 01011011
          -80 callsubr
          hintmask 01010111
          -63 callgsubr
        </CharString>
        <CharString name="O">
          -82 callsubr
          endchar
        </CharString>
        <CharString name="OE">
          393 -18 37 -24 47 297 42 257 47 -24 37 hstemhm
          42 98 521 74 hintmask 01110110
          735 339 rmoveto
          -57 callsubr
          -54 -2 -54 hhcurveto
          -54 -54 2 3 -56 hvcurveto
          2 -32 2 -32 -32 vvcurveto
          -2 -2 rlineto
          hintmask 10101110
          31 -23 -61 80 -169 hhcurveto
          -207 -154 -131 -239 -215 154 -131 190 146 75 64 49 44 hvcurveto
          2 -2 rlineto
          hintmask 01110110
          -33 -2 -32 -3 -33 vhcurveto
          3 58 56 2 57 hhcurveto
          56 56 -2 -3 56 -27 callgsubr
          hintmask 10101110
          -595 102 rmoveto
          -31 callgsubr
          152 142 107 -87 -234 -192 -100 -129 -160 -141 -120 99 222 vhcurveto
          endchar
        </CharString>
        <CharString name="Oacute">
          -82 callsubr
          306 391 -101 callsubr
        </CharString>
        <CharString name="Ocircumflex">
          -32 callgsubr
          138 62 -94 callgsubr
          494 391 -89 callgsubr
        </CharString>
        <CharString name="Odieresis">
          -32 callgsubr
          60 102 hstem
          42 98 127 18 callsubr
          127 -100 callgsubr
          422 469 -104 callgsubr
        </CharString>
        <CharString name="Ograve">
          -82 callsubr
          401 391 -97 callsubr
        </CharString>
        <CharString name="Oslash">
          -32 callgsubr
          hstem
          42 98 553 98 vstem
          202 118 rmoveto
          -39 51 -23 74 97 vvcurveto
          -31 callgsubr
          156 80 70 -25 -54 49 vhcurveto
          -573 -242 rmoveto
          -119 42 -93 72 -60 vhcurveto
          -29 -33 -51 -57 -14 -11 11 -6 10 -8 7 -10 14 23 49 55 26 29 rrcurveto
          -44 62 82 -24 93 hhcurveto
          -39 callgsubr
          118 -42 92 -71 61 hvcurveto
          25 28 52 58 16 11 -10 6 -12 10 -6 8 -9 -17 -55 -63 -23 -24 rrcurveto
          46 -62 -83 24 -95 hhcurveto
          -45 callgsubr
          hvcurveto
          591 220 rmoveto
          38 -53 22 -72 -95 vvcurveto
          -222 -120 -99 -157 -78 -69 25 52 -49 vhcurveto
          endchar
        </CharString>
        <CharString name="Otilde">
          -32 callgsubr
          58 57 -11 57 hstemhm
          42 98 553 98 hintmask 11011100
          -104 callsubr
          240 416 rmoveto
          -61 callsubr
          hintmask 11101100
          -80 callsubr
          hintmask 11011100
          -63 callgsubr
        </CharString>
        <CharString name="P">
          -51 16 -21 311 37 305 37 -2 callgsubr
          258 92 vstem
          98 -53 callgsubr
          55 vlineto
          -2 26 25 -1 30 hhcurveto
          96 173 34 176 167 -159 2 -60 hvcurveto
          -28 -64 -5 -32 hhcurveto
          -32 -33 2 3 -32 -66 callsubr
          82 222 rmoveto
          90 hlineto
          103 65 -24 -114 -136 -105 -31 -82 -22 -28 3 5 -21 hvcurveto
          endchar
        </CharString>
        <CharString name="Q">
          226 -18 37 -4 -21 667 37 hstemhm
          42 98 553 98 hintmask 10111000
          -98 callgsubr
          10 9 0 1 10 vhcurveto
          83 -68 74 -67 73 -67 11 17 32 22 35 2 rrcurveto
          hintmask 01111000
          -81 57 -74 58 -71 57 rrcurveto
          160 38 104 121 187 vvcurveto
          -40 callsubr
          vhcurveto
          hintmask 10111000
          -45 callgsubr
          hvcurveto
          endchar
        </CharString>
        <CharString name="R">
          4 16 -21 332 37 284 37 -2 callgsubr
          258 88 vstem
          180 426 rmoveto
          72 3 72 3 73 vhcurveto
          2 21 30 3 46 hhcurveto
          68 87 -26 -105 -119 -109 -34 -82 -26 -23 1 4 -18 hvcurveto
          -82 -115 -64 callsubr
          73 38 vlineto
          86 -87 133 -184 40 -61 rrcurveto
          3 19 20 2 19 hhcurveto
          20 20 -2 -3 20 hvcurveto
          -58 65 -167 215 -49 61 rrcurveto
          76 10 129 52 129 vvcurveto
          119 -95 39 -113 vhcurveto
          -38 -38 -5 -38 hhcurveto
          -38 -38 2 3 -38 -66 callsubr
          endchar
        </CharString>
        <CharString name="S">
          -107 36 callgsubr
          32 callgsubr
          hintmask 11101000
          hintmask 11011000
          -22 callgsubr
          hintmask 11101000
          -55 callgsubr
          hintmask 11011000
          -86 -50 57 47 -22 hvcurveto
          endchar
        </CharString>
        <CharString name="Scaron">
          -107 36 callgsubr
          33 62 32 callgsubr
          hintmask 11010100
          hintmask 11001100
          -22 callgsubr
          hintmask 11010100
          -55 callgsubr
          hintmask 11101100
          -86 -50 57 47 -22 hvcurveto
          185 665 -68 callsubr
        </CharString>
        <CharString name="T">
          -51 16 -21 638 52 hstem
          237 82 vstem
          237 -53 callgsubr
          172 vlineto
          69 1 69 2 69 vhcurveto
          69 89 -4 -7 56 6 callgsubr
          11 10 vvcurveto
          11 2 10 3 11 vhcurveto
          -3 -86 -86 -2 -86 hhcurveto
          -86 -86 2 3 -86 hvcurveto
          3 -11 2 -10 -10 vvcurveto
          -11 -2 -11 -3 -10 vhcurveto
          7 56 89 4 69 hhcurveto
          2 -69 1 -69 -69 vvcurveto
          endchar
        </CharString>
        <CharString name="Thorn">
          -51 16 -21 196 37 289 37 -37 168 hstemhm
          98 82 247 92 hintmask 11101100
          180 517 rmoveto
          89 hlineto
          118 40 -71 -67 -104 -83 -47 -86 -31 -31 1 3 -16 hvcurveto
          -82 22 rmoveto
          -85 callgsubr
          -6 24 -2 62 58 vvcurveto
          56 vlineto
          -2 28 29 -2 36 hhcurveto
          118 128 42 147 121 -82 53 -134 hvcurveto
          -123 hlineto
          hintmask 11011100
          44 4 43 4 44 -87 callgsubr
          endchar
        </CharString>
        <CharString name="U">
          -91 callsubr
          endchar
        </CharString>
        <CharString name="Uacute">
          -91 callsubr
          -298 371 -101 callsubr
        </CharString>
        <CharString name="Ucircumflex">
          -14 callsubr
          171 62 -103 callsubr
          -110 371 -89 callgsubr
        </CharString>
        <CharString name="Udieresis">
          -14 callsubr
          93 102 hstem
          95 82 63 18 callsubr
          80 -105 callsubr
          -182 449 -104 callgsubr
        </CharString>
        <CharString name="Ugrave">
          -91 callsubr
          -203 371 -97 callsubr
        </CharString>
        <CharString name="V">
          60 21 callsubr
          17 633 vstem
          296 -5 rmoveto
          3 9 13 -19 callsubr
          88 230 96 230 104 230 10 callgsubr
          -42 -131 -112 -298 -73 -162 -84 202 -85 212 -59 177 rrcurveto
          -3 -17 -18 -2 -17 hhcurveto
          -17 -18 2 3 -17 hvcurveto
          97 -230 122 -295 60 -165 rrcurveto
          endchar
        </CharString>
        <CharString name="W">
          393 -5 98 -77 -3 callsubr
          hstemhm
          13 974 hintmask 01110000
          229 -5 rmoveto
          12 callgsubr
          62 187 101 294 32 92 rrcurveto
          2 hlineto
          66 -198 60 -188 58 -187 rrcurveto
          -60 callgsubr
          35 106 165 490 39 94 rrcurveto
          -3 -12 -11 -2 -12 hhcurveto
          -12 -11 2 3 -12 hvcurveto
          hintmask 10110000
          -19 -87 -130 -416 -30 -89 rrcurveto
          -2 hlineto
          -35 104 -126 380 -30 108 -37 callgsubr
          -25 -103 -130 -379 -36 -110 rrcurveto
          -2 hlineto
          -80 253 -42 136 -51 203 rrcurveto
          -3 -17 -16 -2 -17 hhcurveto
          -17 3 callgsubr
          -17 hvcurveto
          hintmask 01110000
          39 -106 144 -475 33 -109 rrcurveto
          endchar
        </CharString>
        <CharString name="X">
          4 16 -21 399 -21 312 -20 hstem
          37 537 vstem
          319 411 rmoveto
          -61 101 -50 84 -44 89 rrcurveto
          -3 -18 -18 -2 -18 hhcurveto
          -18 -18 2 3 -18 hvcurveto
          73 -115 70 -116 69 -115 -75 -115 -77 -116 -79 -113 rrcurveto
          3 12 13 -23 callsubr
          13 -2 -3 12 hvcurveto
          54 101 59 101 68 101 67 -101 50 -101 53 -101 rrcurveto
          3 19 18 2 19 hhcurveto
          19 18 -2 -3 19 hvcurveto
          -79 125 -78 126 -75 127 68 107 75 100 75 105 10 callgsubr
          -56 -103 -49 -80 -62 -91 rrcurveto
          endchar
        </CharString>
        <CharString name="Y">
          -71 callgsubr
          endchar
        </CharString>
        <CharString name="Yacute">
          -71 callgsubr
          -28 442 -101 callsubr
        </CharString>
        <CharString name="Ydieresis">
          4 -1 callsubr
          93 102 hstemhm
          166 102 -3 82 16 102 hintmask 11101000
          -86 callsubr
          hintmask 11110100
          98 530 -104 callgsubr
        </CharString>
        <CharString name="Z">
          4 -5 47 596 47 hstem
          23 565 vstem
          -44 callsubr
          16 callsubr
          -2 -34 -37 -3 -36 hhcurveto
          -206 -146 0 5 -65 hvcurveto
          -38 callsubr
          endchar
        </CharString>
        <CharString name="Zcaron">
          4 -5 47 596 42 5 -20 66 62 hstemhm
          23 565 hintmask 11001000
          -44 callsubr
          hintmask 10101000
          16 callsubr
          hintmask 11001000
          -2 -34 -37 -3 -36 hhcurveto
          -103 -88 0 1 -70 hvcurveto
          hintmask 10101000
          -71 -52 2 2 -33 hvcurveto
          hintmask 11011000
          -38 callsubr
          283 781 -68 callsubr
        </CharString>
        <CharString name="_0141">
          37 333 162 rmoveto
          -3 -3 -7 -1 vvcurveto
          -7 -4 10 vlineto
          3 3 2 2 2 3 rrcurveto
          -55 -18 rmoveto
          3 5 1 6 7 vvcurveto
          15 hlineto
          -5 -2 -3 -5 -17 1 -10 2 -5 hvcurveto
          4 hlineto
          1 3 3 5 3 6 rrcurveto
          4 -14 -11 hlineto
          -3 -1 4 3 -3 hvcurveto
          -8 hlineto
          1 -4 9 5 vvcurveto
          86 -34 rmoveto
          15 vlineto
          4 3 3 1 1 hvcurveto
          -13 vlineto
          3 -1 2 -2 5 -3 1 -16 rcurveline
          -4 5 -6 5 -9 6 rrcurveto
          -285 517 rmoveto
          5 16 21 2 27 hhcurveto
          17 12 -2 -5 8 hvcurveto
          -5 7 11 -2 16 hhcurveto
          13 6 7 6 2 6 rrcurveto
          19 11 8 16 3 hvcurveto
          9 4 1 2 3 2 3 1 rlinecurve
          3 2 1 1 hvcurveto
          3 7 0 8 11 hhcurveto
          1 2 2 2 4 2 rrcurveto
          5 1 2 2 2 vvcurveto
          21 11 6 12 hvcurveto
          5 5 2 4 3 hvcurveto
          5 3 4 2 5 hhcurveto
          1 3 17 4 4 vvcurveto
          5 3 1 2 2 hvcurveto
          5 8 5 3 3 hhcurveto
          9 4 rlineto
          5 1 2 3 3 vvcurveto
          7 8 1 3 7 hvcurveto
          2 7 7 1 5 hhcurveto
          3 2 2 5 3 vhcurveto
          5 1 2 1 1 1 89 19 rcurveline
          42 -4 15 -8 5 -2 3 -2 3 -3 rlinecurve
          7 -5 10 -6 14 -7 7 -42 rcurveline
          -28 40 callsubr
          hvcurveto
          -7 -15 8 -3 hhcurveto
          5 -1 1 -7 4 vhcurveto
          -68 hlineto
          -2 -2 -2 -3 -3 -5 rrcurveto
          -9 -24 -8 -9 hhcurveto
          -17 -12 -4 4 -12 -4 rrcurveto
          -3 -2 -2 -4 -3 hvcurveto
          -6 -6 rlineto
          -2 -7 -2 -1 1 hhcurveto
          -4 hlineto
          -1 -4 -15 -3 0 vvcurveto
          -4 -9 -7 -5 -5 hvcurveto
          -7 -5 -3 -7 -3 hvcurveto
          -7 0 -3 -9 hvcurveto
          -8 -13 -7 -1 hhcurveto
          0 -9 -9 -11 vhcurveto
          -3 -1 -8 0 -4 -7 -1 -1 -2 37 callsubr
          -3 -1 -2 -1 -1 rrcurveto
          -7 -4 -3 -5 hvcurveto
          -5 -4 -2 -4 -4 hvcurveto
          -5 -5 rlineto
          -10 -5 -4 -7 hvcurveto
          -3 -5 -2 -5 -5 hvcurveto
          -11 vlineto
          -5 -4 -3 0 -3 -5 rrcurveto
          -15 vlineto
          -5 4 4 -2 3 hhcurveto
          -48 vlineto
          -4 -4 -3 -6 -3 hvcurveto
          -11 vlineto
          37 callsubr
          37 callsubr
          -2 -2 -3 -1 rrcurveto
          -22 vlineto
          -8 -4 0 1 -12 vvcurveto
          -7 -1 -4 -2 vhcurveto
          -7 -7 rlineto
          -12 -5 0 0 -11 vvcurveto
          -12 -5 -8 -5 -3 -9 rrcurveto
          -7 -7 -15 -4 -22 hhcurveto
          7 -11 -12 4 -12 hhcurveto
          -1 2 -3 4 -3 5 rrcurveto
          -15 hlineto
          -2 -3 1 3 -4 hvcurveto
          3 -5 -4 1 -4 hhcurveto
          7 -4 6 -7 3 vhcurveto
          5 -1 3 -3 3 vhcurveto
          -7 -7 0 -1 -7 hvcurveto
          -11 -1 rlineto
          -3 -3 2 5 -5 hvcurveto
          1 -2 -2 1 -2 hhcurveto
          55 vlineto
          3 4 4 2 4 3 4 83 rcurveline
          3 1 4 3 3 hvcurveto
          15 vlineto
          3 7 -1 7 5 hhcurveto
          1 20 6 5 vvcurveto
          5 14 9 2 3 hhcurveto
          296 -495 rmoveto
          -3 3 -2 3 -2 1 rrcurveto
          1 -3 -5 0 -7 hhcurveto
          18 vlineto
          4 -4 6 -5 8 -5 rrcurveto
          -5 1 -4 3 -3 vhcurveto
          15 hmoveto
          2 -2 1 -2 -3 vvcurveto
          -2 2 -3 2 -5 3 rrcurveto
          10 -7 rmoveto
          7 hlineto
          3 1 4 4 5 5 rrcurveto
          6 4 3 3 3 hhcurveto
          -1 -5 -4 -2 -5 -5 rrcurveto
          -14 vlineto
          4 -3 5 -2 1 -3 rrcurveto
          -3 -3 -2 -5 -4 hvcurveto
          -13 vlineto
          7 -7 rlineto
          17 hlineto
          1 -4 1 -3 2 -3 1 -4 6 -4 11 -4 rrcurveto
          2 7 1 8 7 vvcurveto
          7 -6 -7 4 -9 hhcurveto
          31 vlineto
          22 callgsubr
          -6 6 -2 1 -2 2 -1 3 rlinecurve
          1 -1 4 -1 7 -3 4 -1 6 -2 7 -2 rrcurveto
          -1 4 6 -1 9 hhcurveto
          -22 vlineto
          4 -3 6 -1 1 -3 rrcurveto
          -11 1 -6 3 -3 vhcurveto
          9 hlineto
          2 2 1 5 7 vvcurveto
          6 vlineto
          12 3 2 5 7 hvcurveto
          5 -5 -3 3 -3 hhcurveto
          14 vlineto
          2 4 36 callsubr
          26 vlineto
          -4 3 -4 1 -3 5 rrcurveto
          11 0 0 -11 4 vhcurveto
          9 9 10 1 hhcurveto
          -10 vlineto
          -5 2 -3 5 vhcurveto
          4 -13 -1 1 8 -4 rrcurveto
          -10 3 -7 5 -5 vhcurveto
          3 hlineto
          3 3 3 11 1 hhcurveto
          13 5 7 8 11 vvcurveto
          3 6 3 5 9 hvcurveto
          -58 -7 vlineto
          -2 -2 -1 -5 -7 vvcurveto
          -3 -1 -4 -2 -7 -5 rrcurveto
          -5 7 10 -2 15 hhcurveto
          -7 -3 1 -4 -7 vhcurveto
          -36 vlineto
          -9 4 4 0 -6 10 rrcurveto
          -20 hlineto
          37 callsubr
          -3 vhcurveto
          -1 -4 -1 -3 -1 vvcurveto
          -3 -3 -3 -5 -5 hvcurveto
          5 3 -1 -2 3 hvcurveto
          -7 vlineto
          -3 -3 -4 -1 -4 -4 rrcurveto
          -16 vlineto
          -13 -7 -3 -5 -2 hvcurveto
          -7 vlineto
          1 -1 rlineto
          1 -1 0 -3 vhcurveto
          4 -4 8 3 vvcurveto
          -12 -8 -3 -5 -3 hvcurveto
          -7 vlineto
          -7 7 8 -4 7 hhcurveto
          -7 -7 vlineto
          -8 -3 -7 -3 -6 -1 rrcurveto
          -1 -3 -3 0 -4 hhcurveto
          15 vlineto
          5 2 2 5 23 -1 15 -2 5 hvcurveto
          -3 hlineto
          -5 -5 -3 -13 -21 vvcurveto
          -5 -3 -1 -3 -3 hvcurveto
          -14 -26 vlineto
          -4 -8 rlineto
          -38 vlineto
          -7 -8 -1 -3 -9 hvcurveto
          -5 6 5 -2 3 hhcurveto
          -18 vlineto
          -4 1 -2 2 3 vvcurveto
          2 -2 2 -5 1 vhcurveto
          -4 hlineto
          -3 -1 -2 -2 -1 -2 -1 -3 -2 -2 -2 -1 rrcurveto
          18 vlineto
          22 callgsubr
          38 -2 21 -5 5 vhcurveto
          -4 hlineto
          28 callgsubr
          0 -1 28 callgsubr
          rcurveline
          4 3 rlineto
          3 -3 -3 1 -5 hhcurveto
          21 -2 13 -5 5 vhcurveto
          -4 hlineto
          -4 -2 -2 -7 1 -12 rrcurveto
          1 -23 0 -10 2 vvcurveto
          -55 vlineto
          -1 8 -3 -3 vvcurveto
          -7 vlineto
          -1 -7 -6 -4 vvcurveto
          -29 25 hlineto
          1 38 callsubr
          vhcurveto
          -4 2 -1 1 -2 1 -2 1 rlinecurve
          -1 5 -3 5 -3 6 rrcurveto
          -4 hlineto
          -5 -5 -2 -8 -11 vvcurveto
          2 -1 2 -1 3 -1 4 -4 rcurveline
          -7 vlineto
          -3 -3 -5 -3 -7 -5 rrcurveto
          2 4 4 7 5 hvcurveto
          7 vlineto
          5 -6 2 -12 -10 -6 -2 -5 -2 vhcurveto
          -11 vlineto
          3 -2 1 -5 vhcurveto
          7 -2 5 -3 3 vhcurveto
          -3 3 -6 2 -7 2 rrcurveto
          16 vlineto
          -7 4 rlineto
          -15 14 hlineto
          5 -4 -4 3 -3 hhcurveto
          -3 8 -7 6 -12 4 rrcurveto
          31 vlineto
          7 2 4 5 8 vvcurveto
          3 5 3 3 hhcurveto
          13 -1 7 -3 2 vhcurveto
          -7 hlineto
          -2 -2 -1 -5 -7 vvcurveto
          -3 -7 -3 -5 -9 hvcurveto
          44 vlineto
          5 5 4 1 hhcurveto
          38 18 -14 vlineto
          -3 -3 -1 -3 -1 hvcurveto
          -1 37 callsubr
          -1 rrcurveto
          19 12 36 callsubr
          7 vlineto
          -4 4 4 -4 rlineto
          17 hlineto
          -21 1 -11 2 -3 vhcurveto
          -9 hlineto
          -7 -7 rlineto
          -15 vlineto
          -8 -3 1 1 -4 -12 rrcurveto
          -3 -3 -3 -5 -5 hvcurveto
          35 -10 hlineto
          -6 -3 -4 -2 -3 -3 rrcurveto
          -7 2 -8 5 -9 vhcurveto
          7 3 7 5 7 9 rrcurveto
          22 7 vlineto
          1 -8 1 -10 1 -13 rrcurveto
          8 hlineto
          3 2 1 5 9 vvcurveto
          12 7 3 5 2 hvcurveto
          7 vlineto
          -7 7 7 4 rlineto
          14 vlineto
          4 -3 8 -1 3 -3 rrcurveto
          -11 1 2 5 -9 vhcurveto
          18 11 4 7 3 hvcurveto
          9 -1 vlineto
          -1 1 1 -1 3 hhcurveto
          8 11 -1 0 11 vvcurveto
          22 callgsubr
          20 vlineto
          5 -5 -3 3 -3 hhcurveto
          3 -4 3 1 vvcurveto
          214 4 19 callgsubr
          8 hlineto
          -2 -1 -2 -3 -3 vhcurveto
          -3 hlineto
          -3 3 -2 3 5 vvcurveto
          12 -4 rmoveto
          3 1 2 2 2 vhcurveto
          -1 0 28 callgsubr
          vhcurveto
          -1 -2 28 callgsubr
          vvcurveto
          3 7 rmoveto
          50 vlineto
          3 3 36 callsubr
          10 15 vlineto
          4 8 rlineto
          22 7 -90 vlineto
          -1 28 callgsubr
          -3 -1 -2 -1 -2 -2 -2 -2 rrcurveto
          -14 vlineto
          -5 -3 -4 -2 -5 -3 rrcurveto
          13 -3 7 -5 2 vhcurveto
          -180 -199 19 callgsubr
          3 vlineto
          1 -1 -1 0 -2 hhcurveto
          4 -4 rmoveto
          3 -1 3 -2 3 -5 6 -6 rcurveline
          5 -2 4 -5 5 vhcurveto
          4 vmoveto
          2 6 1 10 15 vvcurveto
          15 hlineto
          41 callgsubr
          -2 1 -1 rrcurveto
          -3 1 -2 3 -1 vhcurveto
          -1 1 2 0 1 hhcurveto
          -3 -3 -4 -1 -4 -3 rrcurveto
          -9 vlineto
          -3 -1 -2 -2 vhcurveto
          1 -2 -2 0 -2 hhcurveto
          -63 57 rmoveto
          -1 -3 0 -5 -7 vvcurveto
          -12 vlineto
          -13 -1 -9 -1 -4 vhcurveto
          -4 49 hlineto
          2 2 1 3 3 hvcurveto
          -107 -79 rmoveto
          3 -4 rlineto
          2 38 callsubr
          vhcurveto
          1 -4 rmoveto
          3 2 -1 -2 3 hvcurveto
          -5 -3 1 2 hvcurveto
          -46 222 rmoveto
          -2 -2 1 2 -3 hvcurveto
          12 vlineto
          -7 7 rlineto
          -15 15 hlineto
          7 4 3 6 hvcurveto
          7 vlineto
          -1 4 -9 3 -1 1 rrcurveto
          10 vlineto
          5 -4 -4 3 -3 hhcurveto
          4 7 4 3 hvcurveto
          7 vlineto
          2 -1 1 -3 1 vhcurveto
          -3 1 -3 2 -1 1 rrcurveto
          34 8 -16 vlineto
          3 -7 rlineto
          15 -33 hlineto
          -5 -3 -3 -5 hvcurveto
          -7 vlineto
          -2 3 -1 5 vhcurveto
          -24 vlineto
          3 -1 7 -6 1 -1 rrcurveto
          -26 vlineto
          35 -42 rmoveto
          3 3 1 6 11 vvcurveto
          13 hlineto
          -3 -1 -2 -3 -1 -3 rrcurveto
          -31 vlineto
          1 -1 -3 3 -3 hhcurveto
          5 -1 4 -3 5 vhcurveto
          11 -18 rmoveto
          0 8 -4 3 vhcurveto
          -8 hlineto
          -1 1 0 0 1 vvcurveto
          9 -2 rmoveto
          1 5 2 5 4 5 rrcurveto
          -15 vlineto
          206 169 rmoveto
          41 callgsubr
          -2 1 -1 4 -2 rcurveline
          -1 1 2 0 1 hhcurveto
          1 -15 rlineto
          -18 hlineto
          11 0 0 -13 4 vhcurveto
          23 -1 14 -3 5 vhcurveto
          -3 hlineto
          -3 -1 -1 -3 -1 -4 -1 -4 -1 -2 -1 -1 rrcurveto
          -4 15 15 hlineto
          1 4 1 5 2 5 rrcurveto
          9 -14 hlineto
          -5 5 4 -3 2 hhcurveto
          -21 41 rmoveto
          5 -2 2 -4 vhcurveto
          -5 -5 -4 -2 -3 hhcurveto
          14 15 vlineto
          -4 3 -9 -1 vvcurveto
          -211 -15 rmoveto
          -12 hlineto
          -3 -3 -7 -1 vvcurveto
          -5 -18 -9 -2 -1 hhcurveto
          25 15 vlineto
          7 8 rlineto
          14 vlineto
          18 10 7 13 3 hvcurveto
          12 3 7 8 3 11 rrcurveto
          15 hlineto
          -19 2 -12 5 -3 vhcurveto
          4 hlineto
          4 3 2 7 10 vvcurveto
          5 3 3 2 2 2 rrcurveto
          15 vlineto
          -5 6 4 -3 1 hhcurveto
          8 hlineto
          -1 3 36 callsubr
          -12 2 -7 5 -3 vhcurveto
          4 hlineto
          1 3 5 8 1 3 rrcurveto
          15 hlineto
          1 -3 1 -4 2 -4 1 -1 3 -1 5 -1 rrcurveto
          -9 -5 -3 -5 hvcurveto
          -7 vlineto
          -3 3 12 -2 21 hhcurveto
          -15 -39 vlineto
          -1 1 -1 3 -1 4 -2 4 -1 2 -1 1 rrcurveto
          -4 hlineto
          -1 -3 -3 -5 -3 -7 rrcurveto
          -4 hlineto
          -1 2 -3 5 -3 8 rrcurveto
          -15 hlineto
          -4 -1 -5 -2 -6 vhcurveto
          -8 hlineto
          3 -1 5 -2 7 vhcurveto
          -28 hlineto
          -1 -4 -3 -5 -3 -6 rrcurveto
          -7 -6 -3 -5 -7 hvcurveto
          -5 -5 -6 -4 -5 -5 rrcurveto
          endchar
        </CharString>
        <CharString name="a">
          -36 callgsubr
          -92 callgsubr
          endchar
        </CharString>
        <CharString name="aacute">
          -76 callgsubr
          -151 312 -101 callsubr
        </CharString>
        <CharString name="acircumflex">
          -51 callgsubr
          181 62 -23 callgsubr
          hintmask 10111101
          hintmask 10111011
          -75 callsubr
          hintmask 10111101
          -68 callgsubr
          hintmask 01111011
          -95 callgsubr
          hintmask 10111101
          -75 callgsubr
          37 312 -89 callgsubr
        </CharString>
        <CharString name="acute">
          13 callsubr
          98 225 vstem
          98 559 -101 callsubr
        </CharString>
        <CharString name="adieresis">
          -51 callgsubr
          103 102 -9 callsubr
          4 18 callsubr
          -69 74 hintmask 1011110001000000
          hintmask 1011101001000000
          -75 callsubr
          hintmask 1011110001000000
          -68 callgsubr
          hintmask 0111101001000000
          -95 callgsubr
          hintmask 1011110001000000
          -75 callgsubr
          hintmask 1011100110000000
          -35 390 -104 callgsubr
        </CharString>
        <CharString name="ae">
          171 -15 42 216 32 119 -21 68 42 -32 32 hstemhm
          35 82 -38 11 235 76 -75 78 263 82 hintmask 1110101101000000
          hintmask 1110110101000000
          117 122 rmoveto
          109 140 -7 69 23 vhcurveto
          -1 -38 1 -38 -2 -38 rrcurveto
          -71 -4 -56 -35 -53 hhcurveto
          -57 -37 38 57 hvcurveto
          hintmask 1111001101000000
          -38 251 -74 callgsubr
          hintmask 1110110101000000
          -59 callgsubr
          112 49 60 59 22 vhcurveto
          -77 33 77 -42 95 hhcurveto
          -17 callsubr
          hvcurveto
          -94 callsubr
          -64 -53 -29 -46 -35 vhcurveto
          62 -44 -62 13 -44 hhcurveto
          hintmask 1110101011000000
          -53 -48 -13 -45 -60 hvcurveto
          465 26 -25 callsubr
        </CharString>
        <CharString name="agrave">
          -76 callgsubr
          -56 312 -97 callsubr
        </CharString>
        <CharString name="ampersand">
          115 -18 47 -13 -21 649 28 hstemhm
          71 82 33 70 165 52 hintmask 10111100
          421 561 rmoveto
          -51 -34 -62 -68 -42 vhcurveto
          -36 45 -27 60 39 vvcurveto
          53 33 41 52 49 31 -35 -48 vhcurveto
          -235 -39 rmoveto
          -50 28 -51 39 -55 vhcurveto
          -103 -43 -79 -84 -88 vvcurveto
          -111 88 -58 103 95 62 39 59 59 vhcurveto
          hintmask 01111100
          29 -34 23 -33 11 -18 rrcurveto
          2 18 21 3 18 hhcurveto
          21 22 -3 -2 21 hvcurveto
          -128 144 54 64 40 58 41 64 rlinecurve
          -15 10 -15 13 -8 17 -32 -70 -39 -62 -48 -66 -58 65 -58 76 -60 77 rrcurveto
          59 35 78 64 76 vvcurveto
          73 -56 39 -77 vhcurveto
          hintmask 10111100
          -90 -64 -66 -84 hvcurveto
          -33 -353 rmoveto
          83 44 46 73 44 vhcurveto
          60 -83 62 -78 66 -80 rrcurveto
          -46 -46 -45 -26 -67 hhcurveto
          -86 -61 68 72 hvcurveto
          endchar
        </CharString>
        <CharString name="aring">
          -51 callgsubr
          60 42 120 42 -9 callsubr
          51 42 121 42 -22 74 hintmask 1011110110100000
          -75 callsubr
          hintmask 1011111010100000
          -68 callgsubr
          hintmask 0111110110100000
          -95 callgsubr
          hintmask 1011111010100000
          -75 callgsubr
          hintmask 1011110111000000
          -185 398 -42 callsubr
        </CharString>
        <CharString name="asciicircum">
          -1 609 47 hstem
          42 522 vstem
          42 203 rmoveto
          52 hlineto
          209 406 209 -406 rlineto
          52 hlineto
          -234 453 rlineto
          -52 hlineto
          endchar
        </CharString>
        <CharString name="asciitilde">
          -1 186 134 -59 52 hstemhm
          75 456 14 callsubr
          104 186 rmoveto
          32 14 26 43 59 hhcurveto
          26 31 -13 -18 35 hvcurveto
          -22 43 34 -15 37 hhcurveto
          58 37 45 40 27 hvcurveto
          -29 42 rlineto
          -32 -17 -36 -43 -39 hhcurveto
          -42 -32 23 20 -45 hvcurveto
          13 -28 -26 12 -40 hhcurveto
          -61 -30 -32 -51 -31 hvcurveto
          endchar
        </CharString>
        <CharString name="asterisk">
          -163 325 359 28 callsubr
          53 338 14 callsubr
          208 529 rmoveto
          -126 92 rlineto
          -20 -16 -21 -13 -11 vhcurveto
          144 -65 -140 -65 14 -10 12 -19 3 -22 rlinecurve
          122 89 -14 -152 rlineto
          2 9 8 -23 callsubr
          8 -2 -2 9 hvcurveto
          -17 152 126 -88 3 21 13 19 13 10 rlinecurve
          -141 66 142 64 -16 11 -11 20 -3 21 rlinecurve
          -125 -92 16 155 rlineto
          -3 -9 -8 -1 -12 hhcurveto
          -12 -8 1 3 -9 hvcurveto
          endchar
        </CharString>
        <CharString name="at">
          193 28 37 108 37 290 32 88 32 hstemhm
          87 62 87 62 158 47 -27 18 172 47 hintmask 1111111010000000
          hintmask 1111110110000000
          496 468 rmoveto
          -2 hlineto
          45 -4 -34 19 -41 hhcurveto
          -98 -81 -93 -132 -89 38 -45 70 hvcurveto
          hintmask 1111111010000000
          49 38 37 35 23 hvcurveto
          2 hlineto
          -44 9 -28 56 86 106 97 144 118 -64 120 -218 -211 -133 -156 -158 -212 158 -98 130 126 88 56 31 34 vhcurveto
          3 32 rlineto
          -38 -51 -80 -44 -96 hhcurveto
          -144 -106 81 159 177 117 138 161 184 55 -94 -132 -110 -77 -83 -53 -20 -13 13 22 18 3 20 52 248 hvcurveto
          hintmask 1111110110000000
          -52 hlineto
          -30 -97 rmoveto
          -70 -39 -145 -78 -48 -13 32 61 81 41 116 76 50 11 -32 -43 vhcurveto
          endchar
        </CharString>
        <CharString name="atilde">
          -51 callgsubr
          101 57 -57 107 -61 57 4 -20 -23 callgsubr
          hintmask 1011001010100000
          hintmask 1011001001100000
          -75 callsubr
          hintmask 1011001010100000
          -68 callgsubr
          hintmask 0111001001100000
          -95 callgsubr
          hintmask 1011010010100000
          -75 callgsubr
          -217 337 rmoveto
          hintmask 1011001010100000
          -61 callsubr
          hintmask 1011100110100000
          -80 callsubr
          hintmask 1011001010100000
          -63 callgsubr
        </CharString>
        <CharString name="b">
          -51 -15 32 4 -21 441 42 269 -20 hstemhm
          33 callgsubr
          hintmask 10111100
          514 248 rmoveto
          124 -65 111 -138 -71 -54 -34 -70 -45 vhcurveto
          -2 hlineto
          2 124 3 195 7 54 rrcurveto
          -3 -19 -76 callsubr
          6 -67 -17 callgsubr
          -181 vlineto
          hintmask 01111100
          -92 -2 -129 -6 -62 vhcurveto
          18 hlineto
          hintmask 10111100
          21 20 22 20 24 18 rrcurveto
          -38 26 56 -35 63 hhcurveto
          129 98 110 153 hvcurveto
          -88 3 rmoveto
          -141 -62 -93 -82 -95 -51 69 132 165 70 58 85 69 66 -66 -124 vhcurveto
          endchar
        </CharString>
        <CharString name="backslash">
          -107 -23 726 hstem
          86 328 vstem
          362 -23 rmoveto
          -33 callsubr
          -276 726 rlineto
          -33 callgsubr
          endchar
        </CharString>
        <CharString name="bar">
          -274 750 -20 hstem
          141 52 vstem
          141 -250 rmoveto
          52 1000 -52 hlineto
          endchar
        </CharString>
        <CharString name="braceleft">
          4 callgsubr
          57 47 26 62 hintmask 10110100
          hintmask 10111100
          57 260 rmoveto
          hintmask 10110100
          48 25 -38 -56 hvcurveto
          -170 vlineto
          -90 32 -27 56 vhcurveto
          58 37 -32 hlineto
          -35 -17 13 67 hvcurveto
          164 vlineto
          hintmask 11010100
          66 -33 34 -55 20 vhcurveto
          2 vlineto
          55 20 33 34 66 vvcurveto
          164 vlineto
          67 17 13 35 vhcurveto
          32 37 -58 hlineto
          -56 -32 -27 -90 hvcurveto
          hintmask 10110100
          -170 vlineto
          -56 -25 -38 -48 vhcurveto
          endchar
        </CharString>
        <CharString name="braceright">
          4 callgsubr
          141 62 26 47 hintmask 10111000
          hintmask 10111100
          276 302 rmoveto
          hintmask 10111000
          -48 -25 38 56 hvcurveto
          170 vlineto
          90 -32 27 -56 vhcurveto
          -58 -37 32 hlineto
          35 17 -13 -67 hvcurveto
          -164 vlineto
          hintmask 11011000
          -66 33 -34 55 -20 vhcurveto
          -2 vlineto
          -55 -20 -33 -34 -66 vvcurveto
          -164 vlineto
          -67 -17 -13 -35 vhcurveto
          -32 -37 58 hlineto
          56 32 27 90 hvcurveto
          hintmask 10111000
          170 vlineto
          56 25 38 48 vhcurveto
          endchar
        </CharString>
        <CharString name="bracketleft">
          26 callsubr
          138 58 vstem
          138 155 rmoveto
          -93 -2 -92 -4 -91 vhcurveto
          2 15 17 1 19 hhcurveto
          33 52 -2 -1 27 hvcurveto
          -1 5 -1 4 5 vvcurveto
          5 1 5 1 5 vhcurveto
          -1 -28 -32 -1 -31 hhcurveto
          -5 82 -3 84 83 vvcurveto
          252 vlineto
          83 3 84 5 82 vhcurveto
          31 32 -1 -1 28 hvcurveto
          -1 5 -1 5 5 vvcurveto
          5 1 4 1 5 vhcurveto
          -1 -27 -52 -2 -33 hhcurveto
          -19 -17 1 2 -15 hvcurveto
          4 -91 2 -92 -93 vvcurveto
          endchar
        </CharString>
        <CharString name="bracketright">
          26 callsubr
          137 58 vstem
          137 155 rmoveto
          -83 -3 -84 -5 -82 vhcurveto
          -31 -32 1 1 -28 hvcurveto
          1 -5 1 -5 -5 vvcurveto
          -5 -1 -4 -1 -5 vhcurveto
          1 27 52 2 33 hhcurveto
          19 17 -1 -2 15 hvcurveto
          -4 91 -2 92 93 vvcurveto
          252 vlineto
          93 2 92 4 91 vhcurveto
          -2 -15 -17 -1 -19 hhcurveto
          -33 -52 2 1 -27 hvcurveto
          1 -5 1 -4 -5 vvcurveto
          -5 -1 -5 -1 -5 vhcurveto
          1 28 32 1 31 hhcurveto
          5 -82 3 -84 -83 vvcurveto
          endchar
        </CharString>
        <CharString name="breve">
          -274 559 62 hstem
          26 32 217 32 vstem
          26 717 rmoveto
          -85 47 -73 94 93 47 73 85 vhcurveto
          -32 hlineto
          -61 -17 -22 -35 -70 hhcurveto
          -66 -31 35 61 -11 hvcurveto
          endchar
        </CharString>
        <CharString name="brokenbar">
          -274 -175 850 hstem
          141 52 vstem
          141 -175 rmoveto
          52 350 -52 hlineto
          150 vmoveto
          52 350 -52 hlineto
          endchar
        </CharString>
        <CharString name="bullet">
          -1 170 340 hstem
          133 340 vstem
          133 340 rmoveto
          -94 76 -76 94 94 76 76 94 94 -76 76 -94 -94 -76 -76 -94 vhcurveto
          endchar
        </CharString>
        <CharString name="c">
          7 callgsubr
          35 callsubr
          hstem
          42 88 298 8 vstem
          42 234 rmoveto
          -179 127 -70 116 -17 callsubr
          vhcurveto
          -58 callgsubr
          endchar
        </CharString>
        <CharString name="caron">
          -274 559 62 hstem
          10 313 vstem
          167 621 -68 callsubr
        </CharString>
        <CharString name="ccedilla">
          -107 -224 37 82 37 54 41 -40 40 35 callsubr
          hstemhm
          42 88 196 62 40 8 hintmask 1110111110000000
          180 -207 rmoveto
          -40 callgsubr
          21 59 58 3 60 27 37 30 rlinecurve
          -58 callgsubr
          hintmask 1101111110000000
          -167 110 -72 108 -8 vhcurveto
          -35 -92 -46 callsubr
          endchar
        </CharString>
        <CharString name="cedilla">
          -274 -224 37 82 37 hstem
          175 62 vstem
          29 -207 rmoveto
          -40 callgsubr
          25 73 rlineto
          -35 hlineto
          -41 -105 -46 callsubr
          endchar
        </CharString>
        <CharString name="cent">
          -51 -13 40 35 callsubr
          -3 -20 hstemhm
          79 88 128 42 128 8 hintmask 11101110
          295 32 rmoveto
          -83 17 -45 69 117 vvcurveto
          108 38 84 90 20 vhcurveto
          -216 -213 rmoveto
          -165 108 -72 108 -10 vhcurveto
          -7 vlineto
          -30 -2 -45 -3 -28 vhcurveto
          -33 callsubr
          -3 31 -2 41 30 vvcurveto
          8 vlineto
          57 2 58 27 37 30 1 16 2 17 3 16 -5 3 rcurveline
          -40 -35 -62 -31 -53 hhcurveto
          -3 424 hlineto
          64 -1 45 -43 19 -34 rrcurveto
          5 callgsubr
          -25 23 -61 20 -72 1 rrcurveto
          6 vlineto
          28 1 36 4 31 vhcurveto
          -33 callgsubr
          hintmask 11011110
          4 -31 1 -38 -27 vvcurveto
          -8 vlineto
          hintmask 11101110
          -114 -14 -102 -77 -155 vvcurveto
          endchar
        </CharString>
        <CharString name="circumflex">
          -274 664 62 hstem
          10 313 vstem
          286 559 -89 callgsubr
        </CharString>
        <CharString name="colon">
          -12 114 252 114 hstemhm
          82 114 vstemhm
          hintmask 01100000
          82 411 -6 callsubr
          hintmask 10100000
          -366 vmoveto
          -77 callsubr
        </CharString>
        <CharString name="comma">
          -41 callsubr
        </CharString>
        <CharString name="copyright">
          143 -18 37 91 28 410 28 85 37 hstem
          17 42 95 66 471 42 vstem
          154 338 rmoveto
          -139 97 -89 138 64 56 25 16 26 vhcurveto
          11 1 17 5 12 vhcurveto
          -6 2 rlineto
          -23 -26 -53 -32 -56 hhcurveto
          -115 -65 85 114 168 90 43 93 67 35 -35 -17 18 hvcurveto
          5 2 1 18 5 18 7 14 rlinecurve
          17 -29 -47 11 -65 hhcurveto
          -137 -109 -80 -158 hvcurveto
          -137 2 -37 callsubr
          674 hmoveto
          1 callgsubr
          1 callsubr
          vhcurveto
          endchar
        </CharString>
        <CharString name="currency">
          -51 80 47 402 47 hstem
          30 52 392 52 vstem
          474 328 rmoveto
          -111 -85 -90 -111 -111 -85 90 111 111 85 90 111 111 85 -90 -111 vhcurveto
          -41 193 rmoveto
          35 -42 -54 20 -59 hhcurveto
          -59 -54 -21 -35 -43 hvcurveto
          -56 56 -36 -36 55 -57 rlineto
          -34 -41 -21 -55 -59 vvcurveto
          -58 20 -53 34 -42 vhcurveto
          -54 -55 36 -38 56 55 rlineto
          -36 41 55 -21 60 hhcurveto
          59 53 20 36 43 hvcurveto
          55 -54 36 38 -53 53 rlineto
          35 43 20 54 58 vvcurveto
          60 -21 55 -36 41 vhcurveto
          55 56 -36 36 rlineto
          endchar
        </CharString>
        <CharString name="d">
          -51 -15 37 -6 -21 446 42 269 -20 hstemhm
          42 88 283 74 hintmask 10111100
          hintmask 01111100
          413 -5 rmoveto
          2 14 12 3 12 hhcurveto
          12 12 -3 -2 15 hvcurveto
          -1 80 -2 69 91 vvcurveto
          171 3 262 9 84 vhcurveto
          -2 -17 -14 -3 -14 hhcurveto
          -14 -15 3 2 -16 -7 callsubr
          0 -157 -126 vvcurveto
          -2 hlineto
          65 -28 -52 35 -74 hhcurveto
          -104 -111 -82 -170 hvcurveto
          hintmask 10111100
          -172 102 -74 101 98 51 66 42 20 vhcurveto
          2 hlineto
          -286 132 rmoveto
          121 45 95 96 95 51 -71 -126 -109 -45 -113 -104 -65 -73 43 160 vhcurveto
          endchar
        </CharString>
        <CharString name="dagger">
          -107 16 -21 397 57 236 -20 hstem
          216 68 vstem
          216 449 rmoveto
          -58 -34 callsubr
          8 58 58 0 58 hhcurveto
          -132 -5 -133 -3 -132 -20 callgsubr
          -3 132 -5 133 132 vvcurveto
          58 -34 callgsubr
          -8 35 callgsubr
          79 0 115 8 42 3 callsubr
          -42 0 -115 -79 vvcurveto
          endchar
        </CharString>
        <CharString name="daggerdbl">
          -107 16 -21 187 57 202 57 187 -20 hstemhm
          216 68 -65 62 hintmask 11110100
          219 340 rmoveto
          -34 -2 -33 -34 vvcurveto
          -59 -34 callsubr
          hintmask 11111000
          8 58 58 0 58 hhcurveto
          -40 0 -51 -8 -96 -20 callgsubr
          -8 96 0 51 40 vvcurveto
          58 -34 callgsubr
          hintmask 11110100
          -8 -58 -58 0 -59 hhcurveto
          34 -2 33 34 34 2 33 34 vvcurveto
          59 -34 callgsubr
          hintmask 11111000
          -8 35 callgsubr
          40 0 51 8 96 3 callsubr
          -96 0 -51 -40 vvcurveto
          -58 -34 callsubr
          hintmask 11110100
          8 58 58 0 59 hhcurveto
          -34 2 -33 -34 vvcurveto
          endchar
        </CharString>
        <CharString name="degree">
          -207 382 37 216 37 hstem
          55 37 216 37 vstem
          55 527 rmoveto
          -80 65 -65 80 80 65 65 80 80 -65 65 -80 -80 -65 -65 -80 vhcurveto
          37 hmoveto
          60 48 48 60 60 48 -48 -60 -60 -48 -48 -60 -60 -48 48 60 vhcurveto
          endchar
        </CharString>
        <CharString name="dieresis">
          -274 586 102 hstemhm
          17 18 callsubr
          vstemhm
          hintmask 10100000
          214 637 -98 callsubr
          hintmask 11000000
          -96 callsubr
        </CharString>
        <CharString name="divide">
          -1 0 114 113 52 113 114 hstem
          246 114 cntrmask 11100000
          50 227 rmoveto
          22 callsubr
          196 170 -6 callsubr
          -392 vmoveto
          -77 callsubr
        </CharString>
        <CharString name="dollar">
          -51 -16 37 -10 -21 645 37 76 -20 hstemhm
          90 78 -76 12 161 37 103 78 hintmask 10111011
          302 290 rmoveto
          92 -45 11 -38 -43 vvcurveto
          -65 -38 -57 -65 -15 vhcurveto
          -37 366 rmoveto
          -64 24 -33 38 62 vvcurveto
          61 40 46 57 9 vhcurveto
          -612 vmoveto
          hintmask 10110111
          -54 -60 18 85 -47 hvcurveto
          -12 hlineto
          -4 -36 -3 -20 -12 -29 rrcurveto
          -39 49 54 -16 62 hhcurveto
          9 6 0 1 12 hvcurveto
          -37 -2 -39 -6 -31 vhcurveto
          -33 callsubr
          hintmask 01111011
          -6 37 -1 37 38 vvcurveto
          115 22 66 89 99 vvcurveto
          95 -66 40 -115 44 vhcurveto
          256 vlineto
          72 -3 29 -52 13 -34 rrcurveto
          12 hlineto
          8 36 7 22 12 22 rrcurveto
          19 -27 -39 27 -87 hhcurveto
          25 1 27 6 24 vhcurveto
          -33 callgsubr
          7 -23 1 -29 -26 vvcurveto
          -107 -13 -68 -70 -97 vvcurveto
          -97 56 -43 119 -46 vhcurveto
          endchar
        </CharString>
        <CharString name="dotaccent">
          -274 583 102 hstem
          116 102 vstem
          116 634 rmoveto
          -88 callsubr
        </CharString>
        <CharString name="dotlessi">
          -73 callgsubr
          endchar
        </CharString>
        <CharString name="e">
          7 callgsubr
          216 32 176 32 -103 callgsubr
          endchar
        </CharString>
        <CharString name="eacute">
          -72 callgsubr
          -68 108 -101 callsubr
        </CharString>
        <CharString name="ecircumflex">
          25 callgsubr
          181 62 -103 callgsubr
          120 108 -89 callgsubr
        </CharString>
        <CharString name="edieresis">
          25 callgsubr
          103 102 hstemhm
          35 88 -6 18 callsubr
          -27 82 hintmask 11111001
          -105 callgsubr
          hintmask 11110110
          48 186 -104 callgsubr
        </CharString>
        <CharString name="egrave">
          -72 callgsubr
          27 108 -97 callsubr
        </CharString>
        <CharString name="eight">
          -51 -16 32 336 32 256 32 hstemhm
          55 88 -53 82 215 82 -56 88 hintmask 11110010
          55 179 rmoveto
          -124 97 -71 126 123 100 86 132 122 -98 39 -46 8 vhcurveto
          7 vlineto
          hintmask 11101100
          73 23 39 62 62 vvcurveto
          76 -59 71 -132 -114 -74 -75 -84 -78 60 -48 50 -12 vhcurveto
          -7 vlineto
          hintmask 11110010
          -103 -34 -42 -74 -81 vvcurveto
          hintmask 11101100
          332 333 rmoveto
          -69 -32 -59 -76 -75 -32 59 69 69 32 59 75 76 32 -59 -69 vhcurveto
          hintmask 11110010
          26 -328 rmoveto
          -98 -52 -70 -83 -83 -52 70 98 98 52 70 83 83 52 -70 -98 vhcurveto
          endchar
        </CharString>
        <CharString name="ellipsis">
          393 -12 114 hstem
          110 114 219 114 219 114 cntrmask 01110000
          110 45 -6 callsubr
          333 hmoveto
          -86 callgsubr
          333 hmoveto
          -77 callsubr
        </CharString>
        <CharString name="emdash">
          393 207 47 hstem
          0 1000 vstem
          207 vmoveto
          1000 47 -1000 hlineto
          endchar
        </CharString>
        <CharString name="endash">
          -107 207 47 hstem
          0 500 vstem
          207 vmoveto
          500 47 -500 hlineto
          endchar
        </CharString>
        <CharString name="equal">
          -1 130 52 142 52 hstem
          50 506 vstem
          556 376 rmoveto
          -506 -52 506 hlineto
          -142 vmoveto
          -506 -52 506 hlineto
          endchar
        </CharString>
        <CharString name="eth">
          -30 callsubr
          -5 -20 200 -20 29 -20 108 -20 hstemhm
          -10 callsubr
          hintmask 11001111
          433 234 rmoveto
          -61 callgsubr
          -62 callsubr
          vhcurveto
          -398 hmoveto
          -65 callsubr
          135 -71 121 -171 144 vhcurveto
          38 12 39 11 42 10 rrcurveto
          hintmask 10110111
          -9 11 -7 12 -5 12 -37 -15 -43 -15 -46 -14 -37 30 -43 33 -48 34 -70 -18 rcurveline
          45 -34 40 -34 37 -34 -43 -13 -42 -12 -40 -10 8 -12 7 -12 6 -12 45 16 42 15 43 14 46 -42 41 -44 41 -45 -2 -2 rcurveline
          hintmask 11001111
          6 -16 -16 1 -17 hhcurveto
          -45 callsubr
          hvcurveto
          endchar
        </CharString>
        <CharString name="exclam">
          -274 -12 114 69 527 28 callsubr
          110 114 -106 98 hintmask 10110000
          hintmask 01001000
          177 171 rmoveto
          16 190 23 266 22 vvcurveto
          36 -24 13 -25 -25 -24 -13 -36 -22 23 -266 16 -190 vhcurveto
          hintmask 10010000
          -47 -126 -69 callgsubr
        </CharString>
        <CharString name="exclamdown">
          -274 -227 527 69 114 hstemhm
          109 114 -106 98 hintmask 01100000
          hintmask 10010000
          156 300 rmoveto
          -16 -190 -23 -266 -22 vvcurveto
          -36 24 -13 25 25 24 13 36 22 -23 266 -16 190 vhcurveto
          hintmask 01100000
          -67 126 -69 callgsubr
        </CharString>
        <CharString name="f">
          8 callsubr
          89 74 hintmask 11001100
          hintmask 11010100
          294 672 13 callgsubr
          hintmask 11001100
          -87 callsubr
          hintmask 11100100
          -35 callgsubr
        </CharString>
        <CharString name="fi">
          -51 6 callsubr
          37 5 -20 143 102 -14 71 -3 -20 23 -20 hstemhm
          101 74 203 102 -88 74 hintmask 1101001101000000
          392 -85 callsubr
          104 vlineto
          hintmask 1011001101000000
          -78 callsubr
          -70 -60 vvcurveto
          hintmask 1101010110000000
          -14 361 -98 callsubr
          -72 25 13 callgsubr
          hintmask 1101001101000000
          -87 callsubr
          hintmask 1100100101000000
          -35 callgsubr
        </CharString>
        <CharString name="five">
          -51 -16 32 342 42 201 62 9 -20 hstemhm
          68 7 51 39 205 92 hintmask 11100110
          172 601 rmoveto
          62 151 -2 -11 59 hvcurveto
          -1 5 0 5 7 vvcurveto
          19 2 20 5 17 vhcurveto
          -5 4 rlineto
          -1 -24 -54 -1 -62 hhcurveto
          -54 -39 1 2 -29 hvcurveto
          hintmask 11011110
          -28 2 -18 2 -10 2 -9 -6 rcurveline
          6 -45 2 -65 -55 vvcurveto
          -57 -1 -60 -9 -52 vhcurveto
          11 -7 rlineto
          8 12 36 25 55 hhcurveto
          72 68 -44 -113 -126 -74 -59 -79 -54 -63 25 49 -25 hvcurveto
          -7 hlineto
          -2 -16 -6 -25 -7 -17 rrcurveto
          -8 vlineto
          -29 43 58 -11 59 hhcurveto
          147 102 102 126 101 -75 87 -117 -60 -25 -12 -14 -27 hvcurveto
          endchar
        </CharString>
        <CharString name="fl">
          -51 8 callsubr
          101 74 223 74 hintmask 11001110
          398 -57 callgsubr
          181 vlineto
          hintmask 11010110
          92 -73 callsubr
          -92 208 13 callgsubr
          hintmask 11001110
          -87 callsubr
          hintmask 11100110
          -35 callgsubr
        </CharString>
        <CharString name="florin">
          -51 -198 66 491 37 214 62 -5 -20 hstemhm
          460 12 hintmask 11101000
          48 -119 rmoveto
          -24 -5 -25 -9 -30 vhcurveto
          91 99 39 299 53 hvcurveto
          39 219 rlineto
          40 40 0 -2 28 hvcurveto
          14 5 18 5 12 vhcurveto
          -1 -29 -39 -4 -43 hhcurveto
          24 143 rlineto
          59 10 23 12 28 hhcurveto
          22 19 -14 -15 11 hvcurveto
          hintmask 11011000
          12 4 rlineto
          29 5 33 6 20 vhcurveto
          hintmask 11101000
          3 -8 -17 2 -8 hhcurveto
          -105 -61 -128 -97 -23 hvcurveto
          -12 -51 rlineto
          -38 -44 3 2 -23 hvcurveto
          -14 -5 -18 -4 -12 vhcurveto
          2 27 41 0 39 hhcurveto
          -63 -371 rlineto
          -74 -13 -13 -46 -53 hhcurveto
          -17 -17 10 6 -11 hvcurveto
          endchar
        </CharString>
        <CharString name="four">
          -51 16 -21 191 52 428 -20 hstem
          333 74 vstem
          21 179 rmoveto
          2 56 196 5 60 hhcurveto
          -42 vlineto
          -50 -5 -61 -3 -38 vhcurveto
          3 15 14 2 15 hhcurveto
          15 14 -51 callsubr
          -2 36 -4 61 52 vvcurveto
          42 vlineto
          38 37 -2 -4 23 hvcurveto
          -3 11 -2 11 11 vvcurveto
          11 2 11 3 11 vhcurveto
          -4 -23 -37 -4 -38 hhcurveto
          142 1 170 6 116 vhcurveto
          -3 -10 -11 -18 callsubr
          -64 -100 -145 -204 -118 -165 rrcurveto
          312 41 rmoveto
          -233 hlineto
          46 76 129 182 56 78 rrcurveto
          2 hlineto
          endchar
        </CharString>
        <CharString name="fraction">
          -440 684 -20 hstem
          -78 323 vstem
          -78 -28 -69 callsubr
          endchar
        </CharString>
        <CharString name="g">
          -107 -271 29 242 60 100 24 254 37 -29 29 -21 29 -3 -20 hstemhm
          33 64 -47 78 -51 62 212 78 -24 74 hintmask 1110010100010000
          hintmask 1110010010010000
          50 320 rmoveto
          -73 37 -48 61 -27 vhcurveto
          -2 vlineto
          hintmask 1110010001010000
          -33 -6 -38 -33 -44 vvcurveto
          -39 22 -29 41 -12 vhcurveto
          -2 vlineto
          hintmask 1110010100010000
          -53 -16 -54 -44 -72 vvcurveto
          -89 81 -55 128 168 69 111 92 71 -49 54 -122 3 vhcurveto
          hintmask 1110100001100000
          -37 1 -36 1 -37 1 rrcurveto
          -45 1 -14 15 35 vvcurveto
          26 25 20 24 vhcurveto
          19 18 -2 18 hhcurveto
          113 73 60 100 50 -28 54 -41 22 hvcurveto
          2 2 rlineto
          hintmask 1111000100100000
          36 -1 37 -4 38 -3 rrcurveto
          hintmask 1110001100010000
          -16 callsubr
          hintmask 1111000100010000
          -3 -13 -29 -2 -39 hhcurveto
          -14 -26 2 2 -30 hvcurveto
          hintmask 1110010100010000
          2 -36 -20 2 -25 hhcurveto
          hintmask 1110010010010000
          -104 -87 -52 -111 hvcurveto
          hintmask 1110010010100000
          301 5 rmoveto
          -74 -34 -67 -76 -77 -36 54 82 81 42 53 72 65 44 -47 -82 vhcurveto
          hintmask 1110010100010000
          54 -436 rmoveto
          -90 -80 -41 -81 -83 -64 35 91 85 59 31 98 106 45 -33 -78 vhcurveto
          endchar
        </CharString>
        <CharString name="germandbls">
          -51 -15 37 -6 -21 728 32 hstemhm
          87 74 86 68 66 52 26 68 hintmask 10111100
          87 283 rmoveto
          hintmask 01111100
          -79 callgsubr
          235 vlineto
          133 29 72 92 62 37 -40 -53 vhcurveto
          -106 -134 -56 -78 vvcurveto
          hintmask 10111110
          -113 212 -22 -127 vvcurveto
          -65 -53 -41 -55 -41 -42 21 24 -14 vhcurveto
          -5 hlineto
          -2 -18 -7 -26 -9 -15 rrcurveto
          -13 22 35 -10 43 hhcurveto
          103 93 100 87 hvcurveto
          141 -212 20 92 vvcurveto
          hintmask 10111100
          61 118 53 103 vvcurveto
          68 -85 45 -61 -88 -115 -63 -165 vhcurveto
          -15 3 -44 -62 vvcurveto
          endchar
        </CharString>
        <CharString name="grave">
          13 callsubr
          10 225 vstem
          193 559 -97 callsubr
        </CharString>
        <CharString name="greater">
          -1 11 -21 hstem
          509 47 vstem
          50 -10 rmoveto
          506 236 rlineto
          52 vlineto
          -506 238 rlineto
          -52 vlineto
          459 -211 -459 -211 rlineto
          endchar
        </CharString>
        <CharString name="guillemotleft">
          -107 41 0 callsubr
          hintmask 11000000
          96 232 -52 callsubr
          hintmask 10010000
          19 -187 -52 callsubr
          endchar
        </CharString>
        <CharString name="guillemotright">
          -107 44 0 callsubr
          hintmask 10010000
          352 230 -54 callsubr
          hintmask 11000000
          -39 -166 -54 callsubr
          endchar
        </CharString>
        <CharString name="guilsinglleft">
          -274 41 378 hstem
          85 163 vstem
          85 232 -52 callsubr
          endchar
        </CharString>
        <CharString name="guilsinglright">
          -274 45 378 hstem
          85 163 vstem
          196 231 -54 callsubr
          endchar
        </CharString>
        <CharString name="h">
          -51 6 callsubr
          52 269 -20 hstem
          84 74 244 -27 callsubr
          67 -2 129 76 vvcurveto
          104 42 60 93 66 43 -54 -98 vhcurveto
          -67 callgsubr
          76 hlineto
          87 -73 callsubr
          endchar
        </CharString>
        <CharString name="hungarumlaut">
          13 callsubr
          -3 425 vstem
          -3 559 -102 callsubr
          53 -149 -101 callsubr
        </CharString>
        <CharString name="hyphen">
          -274 200 62 hstem
          42 249 vstem
          42 200 rmoveto
          249 62 -249 hlineto
          endchar
        </CharString>
        <CharString name="i">
          34 callgsubr
          143 102 hstemhm
          88 102 -88 74 hintmask 11101000
          -99 callsubr
          hintmask 00110000
          -14 361 rmoveto
          -88 callsubr
        </CharString>
        <CharString name="iacute">
          -73 callgsubr
          -31 273 -101 callsubr
        </CharString>
        <CharString name="icircumflex">
          34 callgsubr
          211 62 -83 callgsubr
          157 273 -89 callgsubr
        </CharString>
        <CharString name="idieresis">
          34 callgsubr
          133 102 hstemhm
          -10 102 10 74 11 102 hintmask 11101000
          -99 callsubr
          hintmask 11111100
          85 351 -104 callgsubr
        </CharString>
        <CharString name="igrave">
          -73 callgsubr
          64 273 -97 callsubr
        </CharString>
        <CharString name="j">
          -271 32 712 -20 143 102 hstemhm
          88 102 -88 74 hintmask 11101000
          102 -51 rmoveto
          -87 -13 -101 -77 -7 -4 1 1 -5 vhcurveto
          7 -34 64 2 52 32 29 42 rlinecurve
          31 45 1 46 56 77 -4 76 77 vvcurveto
          104 vlineto
          -78 callsubr
          -90 -80 vvcurveto
          hintmask 00110000
          -14 401 rmoveto
          -88 callsubr
        </CharString>
        <CharString name="k">
          -107 16 -21 248 20 210 -20 299 -20 hstem
          84 -27 callsubr
          59 -2 58 59 vvcurveto
          60 vlineto
          8 4 4 6 5 6 -5 -5 4 vhcurveto
          47 -50 96 -112 58 -76 rrcurveto
          3 17 17 2 17 hhcurveto
          17 27 callsubr
          23 hvcurveto
          -82 92 -83 93 -76 92 69 67 78 67 83 67 rrcurveto
          -3 -23 -13 -2 -14 hhcurveto
          -14 -13 -8 callgsubr
          -62 -71 -98 -98 -24 -18 rrcurveto
          -12 -16 -13 -11 -10 hhcurveto
          -8 -4 7 12 hvcurveto
          182 vlineto
          92 -73 callsubr
          endchar
        </CharString>
        <CharString name="l">
          -43 callsubr
          181 vlineto
          92 -73 callsubr
          endchar
        </CharString>
        <CharString name="less">
          -1 11 -21 hstem
          50 47 vstem
          50 228 rmoveto
          506 -238 rlineto
          52 vlineto
          -459 211 459 211 rlineto
          52 vlineto
          -506 -236 rlineto
          endchar
        </CharString>
        <CharString name="logicalnot">
          -1 324 52 hstem
          504 52 vstem
          504 108 rmoveto
          52 268 -506 -52 454 hlineto
          endchar
        </CharString>
        <CharString name="lslash">
          -43 callsubr
          93 vlineto
          44 28 30 16 16 10 rrcurveto
          -9 8 -9 13 10 vvcurveto
          -20 -14 -23 -16 -29 -18 rrcurveto
          51 vlineto
          92 -73 callsubr
          -99 vlineto
          -31 -20 -32 -19 -27 -16 9 -9 5 -10 5 -10 11 7 30 19 30 20 rrcurveto
          endchar
        </CharString>
        <CharString name="m">
          226 14 callgsubr
          hstemhm
          78 74 229 74 229 74 cntrmask 00011100
          hintmask 11011100
          78 -85 callsubr
          85 vlineto
          104 42 60 86 33 36 -21 -25 14 vhcurveto
          17 -31 1 -8 -124 vvcurveto
          -73 -3 -79 -6 -75 -12 callsubr
          15 hvcurveto
          -3 62 -2 39 58 vvcurveto
          190 3 10 21 30 vhcurveto
          25 18 34 22 48 hhcurveto
          79 26 -53 -67 -179 -6 -100 -4 -37 hvcurveto
          3 14 15 2 15 hhcurveto
          15 14 23 callsubr
          -3 42 0 31 36 118 6 57 46 vvcurveto
          113 -66 45 -87 -71 -58 -35 -64 -32 vhcurveto
          -2 hlineto
          57 -14 -63 42 -68 hhcurveto
          -64 -49 -29 -61 -36 hvcurveto
          -2 hlineto
          hintmask 10111100
          -48 callsubr
          endchar
        </CharString>
        <CharString name="macron">
          -274 604 52 hstem
          30 273 vstem
          30 604 rmoveto
          273 52 -273 hlineto
          endchar
        </CharString>
        <CharString name="minus">
          -1 227 52 hstem
          50 506 vstem
          50 227 rmoveto
          22 callsubr
          endchar
        </CharString>
        <CharString name="mu">
          -51 -247 -21 253 52 -21 -8 callsubr
          hstemhm
          80 70 249 74 hintmask 11011100
          242 -15 rmoveto
          64 59 34 62 34 hvcurveto
          2 hlineto
          hintmask 10111100
          -96 callgsubr
          hintmask 11011100
          -90 callsubr
          -119 3 -120 -176 vvcurveto
          -128 -3 -82 -1 -116 -20 callgsubr
          -10 92 0 91 100 vvcurveto
          -23 24 31 -7 37 hhcurveto
          endchar
        </CharString>
        <CharString name="multiply">
          -1 474 -20 hstem
          82 442 vstem
          82 69 rmoveto
          37 -37 184 184 185 -184 36 37 -184 184 184 185 -36 36 -185 -184 -184 184 -37 -36 184 -185 rlineto
          endchar
        </CharString>
        <CharString name="n">
          -51 14 callgsubr
          hstemhm
          84 74 244 74 hintmask 11011000
          -50 callgsubr
          hintmask 10111000
          -55 callsubr
          hintmask 11011000
          20 callsubr
          endchar
        </CharString>
        <CharString name="nine">
          -51 -16 32 3 -21 261 37 344 32 hstemhm
          49 88 270 88 hintmask 10111100
          hintmask 01111100
          101 54 rmoveto
          8 -14 8 -25 4 -17 rrcurveto
          hintmask 10111100
          -6 15 30 -8 34 hhcurveto
          186 109 178 222 210 -105 78 -119 -135 -87 -92 -122 -126 75 -73 119 80 51 39 55 31 hvcurveto
          2 hlineto
          -160 -58 -177 -144 -37 -34 16 25 -28 vhcurveto
          297 427 rmoveto
          -96 -51 -92 -92 -76 -47 48 114 111 55 71 78 80 53 -64 -92 vhcurveto
          endchar
        </CharString>
        <CharString name="ntilde">
          -51 14 callgsubr
          131 30 callgsubr
          84 74 244 74 hintmask 1100010110000000
          -50 callgsubr
          hintmask 1010010110000000
          -55 callsubr
          hintmask 1100010110000000
          20 callsubr
          hintmask 1100100110000000
          -258 305 rmoveto
          hintmask 1100010110000000
          -61 callsubr
          hintmask 1101001110000000
          -80 callsubr
          hintmask 1100010110000000
          -63 callgsubr
        </CharString>
        <CharString name="numbersign">
          -51 18 -21 145 82 208 82 145 -20 hstem
          72 412 vstem
          164 224 rmoveto
          29 callgsubr
          74 -29 callsubr
          114 -29 callsubr
          31 callsubr
          -75 hlineto
          43 208 rlineto
          31 callsubr
          -74 -29 callgsubr
          -114 -29 callgsubr
          29 callgsubr
          75 hlineto
          107 -208 rmoveto
          -115 hlineto
          43 208 rlineto
          115 hlineto
          endchar
        </CharString>
        <CharString name="o">
          -78 callgsubr
          endchar
        </CharString>
        <CharString name="oacute">
          -78 callgsubr
          87 325 -101 callsubr
        </CharString>
        <CharString name="ocircumflex">
          -30 callsubr
          181 62 -88 callgsubr
          275 325 -89 callgsubr
        </CharString>
        <CharString name="odieresis">
          -30 callsubr
          103 102 hstemhm
          35 88 6 18 callsubr
          5 88 hintmask 11110010
          -101 callgsubr
          hintmask 11101100
          203 403 -104 callgsubr
        </CharString>
        <CharString name="oe">
          282 -15 32 -32 42 216 32 176 32 hstemhm
          35 88 311 78 266 82 hintmask 10111110
          434 234 rmoveto
          -112 -37 -105 -119 -118 -37 105 112 -36 callsubr
          119 37 -105 -112 vhcurveto
          219 249 rmoveto
          -82 -62 -31 -56 -38 hvcurveto
          61 -45 -75 26 -73 hhcurveto
          -45 callsubr
          -182 127 -67 116 74 75 26 63 46 hvcurveto
          -55 43 68 -34 83 hhcurveto
          -17 callsubr
          hvcurveto
          hintmask 01111110
          -95 callsubr
          hintmask 10111110
          111 -67 93 -140 vhcurveto
          2 -32 -25 callsubr
        </CharString>
        <CharString name="ogonek">
          -274 -224 37 hstem
          113 62 vstem
          225 hmoveto
          -74 -55 -38 -46 -38 vvcurveto
          -56 55 -29 59 26 17 3 7 15 vhcurveto
          -11 33 rlineto
          -3 -9 -11 -3 -11 hhcurveto
          -33 -35 15 44 29 14 29 76 70 hvcurveto
          endchar
        </CharString>
        <CharString name="ograve">
          -78 callgsubr
          182 325 -97 callsubr
        </CharString>
        <CharString name="one">
          -51 16 -21 685 -20 25 -20 hstemhm
          243 78 hintmask 10110000
          243 252 rmoveto
          -86 -2 -85 -6 -86 vhcurveto
          11 callgsubr
          -5 85 -3 86 86 vvcurveto
          167 vlineto
          hintmask 11010000
          87 3 87 5 87 vhcurveto
          -7 5 -69 -35 -83 -38 -76 -31 rlinecurve
          -7 vlineto
          12 -8 12 -12 6 -12 119 66 rcurveline
          endchar
        </CharString>
        <CharString name="onehalf">
          227 -5 47 239 -21 123 24 265 -20 32 -20 hstemhm
          144 57 487 66 hintmask 11101110
          211 -28 -69 callsubr
          -344 -268 -53 callsubr
          hintmask 11110110
          -58 callsubr
          384 -298 -66 callgsubr
        </CharString>
        <CharString name="onequarter">
          227 -5 150 -37 37 136 -21 412 -20 32 -20 hstemhm
          144 57 452 57 hintmask 01101110
          451 29 callsubr
          hintmask 10101110
          -6 callgsubr
          hintmask 01101110
          -65 callgsubr
          -439 -366 -69 callsubr
          -347 -268 -53 callsubr
          hintmask 01110110
          -58 callsubr
          endchar
        </CharString>
        <CharString name="onesuperior">
          -274 281 -21 412 -20 hstem
          147 57 vstem
          147 416 -53 callsubr
          -58 callsubr
          endchar
        </CharString>
        <CharString name="ordfeminine">
          -283 373 28 203 37 3 28 hstemhm
          20 62 -29 12 146 57 hintmask 10101100
          hintmask 11001100
          53 604 rmoveto
          12 hlineto
          hintmask 10101100
          17 8 26 23 41 hhcurveto
          39 32 -12 -65 -19 -5 -2 -87 -16 hvcurveto
          hintmask 10110100
          -78 -14 -21 -22 -47 vvcurveto
          -57 51 -17 42 41 31 15 28 29 vhcurveto
          -23 2 14 -20 27 hhcurveto
          21 17 7 5 9 hvcurveto
          18 vlineto
          -2 -4 -8 -4 -7 hhcurveto
          -10 -12 7 27 hvcurveto
          30 5 67 49 vvcurveto
          79 -61 16 -45 vhcurveto
          hintmask 10101100
          -52 -30 -17 -14 -27 hvcurveto
          158 -200 rmoveto
          hintmask 10110100
          -17 -16 -26 -23 -32 hhcurveto
          -30 -25 18 34 74 88 -15 41 21 hvcurveto
          endchar
        </CharString>
        <CharString name="ordmasculine">
          -267 373 24 251 24 hstem
          10 66 188 66 vstem
          10 522 rmoveto
          -109 82 -40 79 76 83 40 109 110 -83 40 -76 -79 -82 -40 -110 vhcurveto
          66 hmoveto
          63 24 63 71 69 24 -63 -63 -62 -24 -63 -69 -71 -24 63 62 vhcurveto
          endchar
        </CharString>
        <CharString name="oslash">
          -30 callsubr
          hstem
          -10 callsubr
          vstem
          408 368 rmoveto
          18 -37 7 -48 -49 vvcurveto
          -112 -37 -105 -118 -59 -39 26 40 -24 vhcurveto
          -121 151 rmoveto
          -80 24 -55 36 -41 vhcurveto
          -31 -37 -37 -38 -10 -9 10 -4 9 -8 6 -9 15 18 29 33 31 34 rrcurveto
          -37 46 59 -16 56 hhcurveto
          116 127 67 182 85 -26 56 -42 43 hvcurveto
          32 36 29 30 14 11 -10 5 -8 7 -7 10 -8 -14 -31 -35 -31 -33 rrcurveto
          34 -46 -56 14 -53 hhcurveto
          -45 callsubr
          hvcurveto
          108 -124 rmoveto
          -14 36 -6 43 45 vvcurveto
          -36 callsubr
          54 41 -24 -36 22 vhcurveto
          endchar
        </CharString>
        <CharString name="otilde">
          -30 callsubr
          101 30 callgsubr
          -10 callsubr
          hintmask 11001011
          -101 callgsubr
          hintmask 11010011
          21 350 rmoveto
          hintmask 11001011
          -61 callsubr
          hintmask 11100111
          -80 callsubr
          hintmask 11001011
          -63 callgsubr
        </CharString>
        <CharString name="p">
          -4 callgsubr
          -10 -20 hstemhm
          33 callgsubr
          hintmask 11101100
          426 238 -19 callgsubr
          -361 -218 -56 callsubr
          hlineto
          hintmask 11011100
          32 3 31 5 35 -83 callsubr
          -70 -17 callgsubr
          endchar
        </CharString>
        <CharString name="paragraph">
          193 629 51 -41 41 -24 24 hstemhm
          399 36 64 36 hintmask 00111000
          499 -115 rmoveto
          36 759 hlineto
          75 12 rlineto
          24 -261 vlineto
          -123 -76 -61 -123 -121 79 -84 170 hvcurveto
          -406 36 vlineto
          hintmask 10011000
          744 vlineto
          hintmask 01011000
          64 10 rlineto
          endchar
        </CharString>
        <CharString name="parenleft">
          680 -20 38 -20 hstemhm
          60 62 hintmask 01100000
          222 698 rmoveto
          -106 -114 -56 -157 -146 vvcurveto
          -153 56 -150 106 -114 vhcurveto
          20 18 rlineto
          -100 128 -20 118 153 vvcurveto
          hintmask 10100000
          153 20 118 100 128 vhcurveto
          endchar
        </CharString>
        <CharString name="parenright">
          680 -20 38 -20 hstemhm
          156 62 hintmask 01100000
          56 -136 rmoveto
          106 114 56 157 146 vvcurveto
          153 -56 150 -106 114 vhcurveto
          hintmask 10100000
          -20 -18 rlineto
          100 -128 20 -118 -153 vvcurveto
          -153 -20 -118 -100 -128 vhcurveto
          endchar
        </CharString>
        <CharString name="percent">
          282 -16 24 284 24 24 24 284 24 23 -20 hstemhm
          42 74 174 74 161 74 174 74 hintmask 1011011110000000
          42 506 -39 callsubr
          hintmask 1111011110000000
          409 -356 -39 callsubr
          hintmask 1010111110000000
          -366 -189 rmoveto
          -15 callgsubr
          373 -2 callsubr
        </CharString>
        <CharString name="period">
          -12 114 hstem
          82 114 vstem
          82 45 -69 callgsubr
        </CharString>
        <CharString name="periodcentered">
          246 120 hstem
          79 120 vstem
          79 306 rmoveto
          -33 27 -27 33 33 27 27 33 33 -27 27 -33 -33 -27 -27 -33 vhcurveto
          endchar
        </CharString>
        <CharString name="perthousand">
          393 -16 24 272 24 48 24 272 24 23 -20 hstemhm
          33 68 144 68 50 68 144 68 44 68 144 68 hintmask 1111011111100000
          hintmask 1100000110000000
          363 144 rmoveto
          -67 callsubr
          hintmask 1100000001100000
          256 hmoveto
          -67 callsubr
          hintmask 0011011000000000
          -722 368 rmoveto
          -67 callsubr
          hintmask 0000110000000000
          20 -551 rmoveto
          -15 callgsubr
          388 -2 callsubr
        </CharString>
        <CharString name="plus">
          -1 21 -21 227 52 hstem
          277 52 vstem
          50 227 rmoveto
          227 -227 52 227 227 52 -227 227 -52 -227 -227 hlineto
          endchar
        </CharString>
        <CharString name="plusminus">
          -1 0 52 220 52 hstem
          277 52 vstem
          50 272 rmoveto
          227 -182 52 182 227 52 -227 182 -52 -182 -227 hlineto
          -324 vmoveto
          22 callsubr
          endchar
        </CharString>
        <CharString name="q">
          -4 callgsubr
          -10 -20 hstemhm
          42 88 287 74 hintmask 11101100
          417 244 rmoveto
          -110 -52 -112 -101 -89 -45 87 114 175 78 43 65 103 41 -95 -102 vhcurveto
          74 -62 rmoveto
          hintmask 11011100
          92 2 129 6 70 -82 callgsubr
          5 -35 3 -31 -32 vvcurveto
          -2 hlineto
          hintmask 11101100
          61 -23 -50 47 -90 hhcurveto
          -98 -112 -77 -175 -183 111 -63 99 65 60 35 75 38 hvcurveto
          2 -75 hlineto
          -79 callgsubr
          endchar
        </CharString>
        <CharString name="question">
          -218 -12 114 72 28 459 37 hstemhm
          91 62 -28 114 24 68 hintmask 11101000
          86 615 rmoveto
          hintmask 11110100
          27 22 33 19 36 hhcurveto
          42 44 -31 -51 hvcurveto
          -109 -172 -52 -133 vvcurveto
          -82 74 -29 33 16 11 2 3 8 vhcurveto
          1 9 6 13 5 6 -6 4 rcurveline
          -3 -5 -13 -6 -16 hhcurveto
          -34 -18 33 26 hvcurveto
          104 178 59 142 vvcurveto
          71 -52 61 -96 -46 -31 -17 -16 -26 vhcurveto
          hintmask 10001000
          45 -620 -69 callgsubr
        </CharString>
        <CharString name="questiondown">
          -218 -227 37 459 28 -16 -21 25 -21 105 114 hstemhm
          58 68 24 114 -28 62 hintmask 10011010
          hintmask 10101101
          150 260 rmoveto
          3 5 13 6 16 hhcurveto
          34 18 -33 -26 hvcurveto
          -104 -178 -59 -142 vvcurveto
          -71 52 -61 96 46 31 17 16 26 vhcurveto
          -6 50 rlineto
          -27 -22 -33 -19 -36 hhcurveto
          -42 -44 31 51 hvcurveto
          109 172 52 133 vvcurveto
          hintmask 11001001
          82 -74 29 -33 -16 -11 -2 -3 -8 vhcurveto
          hintmask 10011001
          -1 -9 -6 -13 -5 -6 rrcurveto
          hintmask 00001010
          6 162 -69 callgsubr
        </CharString>
        <CharString name="quotedbl">
          -274 -14 callgsubr
          66 52 97 52 hintmask 01110000
          hintmask 10100000
          66 410 23 callgsubr
          hintmask 10010000
          149 -288 23 callgsubr
          endchar
        </CharString>
        <CharString name="quotedblbase">
          -163 -175 288 hstemhm
          50 -5 callsubr
          hintmask 10100000
          hintmask 10010000
          222 -26 callsubr
          hintmask 11000000
          -31 callsubr
        </CharString>
        <CharString name="quotedblleft">
          -163 -14 callgsubr
          64 -5 callsubr
          hintmask 01010000
          hintmask 10001000
          394 691 -47 callgsubr
          hintmask 10100000
          -95 243 -47 callgsubr
          endchar
        </CharString>
        <CharString name="quotedblright">
          -163 -14 callgsubr
          50 -5 callsubr
          hintmask 01010000
          hintmask 10001000
          222 417 -81 callgsubr
          hintmask 10100000
          -31 callsubr
        </CharString>
        <CharString name="quoteleft">
          -14 callgsubr
          70 158 14 callsubr
          228 691 -47 callgsubr
          endchar
        </CharString>
        <CharString name="quoteright">
          -14 callgsubr
          50 158 14 callsubr
          50 417 -81 callgsubr
          endchar
        </CharString>
        <CharString name="quotesinglbase">
          -41 callsubr
        </CharString>
        <CharString name="quotesingle">
          -14 callgsubr
          113 52 14 callsubr
          113 410 23 callgsubr
          endchar
        </CharString>
        <CharString name="r">
          -274 16 -21 412 66 0 -20 24 -20 26 -20 hstemhm
          80 74 151 7 hintmask 10001110
          hintmask 10010110
          312 396 rmoveto
          27 0 38 7 16 vhcurveto
          hintmask 10001110
          5 -13 -7 1 -12 hhcurveto
          -46 -48 -36 -72 -38 hvcurveto
          -2 1 rlineto
          hintmask 10100110
          25 0 24 5 48 vhcurveto
          -3 -13 -14 -2 -13 hhcurveto
          -14 -13 2 3 -15 -7 callsubr
          0 -69 -52 vvcurveto
          -32 vlineto
          -112 0 -78 -4 -49 vhcurveto
          3 15 13 40 callgsubr
          13 14 2 callgsubr
          -4 46 0 53 174 vvcurveto
          hintmask 11000110
          78 38 61 64 20 22 -8 -8 7 vhcurveto
          endchar
        </CharString>
        <CharString name="registered">
          143 -18 37 318 24 184 24 92 37 hstem
          17 42 183 52 168 62 167 42 vstem
          242 263 rmoveto
          -47 -4 -46 -3 -47 vhcurveto
          3 11 11 10 callsubr
          10 11 -13 callgsubr
          -4 48 -2 48 48 vvcurveto
          70 32 vlineto
          58 -72 54 -71 49 -71 rrcurveto
          3 13 13 2 13 hhcurveto
          12 13 2 callgsubr
          5 vlineto
          -41 34 -84 118 -52 65 rrcurveto
          50 4 87 38 82 vvcurveto
          68 -56 32 -70 vhcurveto
          -27 -27 -5 -27 hhcurveto
          -28 -27 2 3 -27 hvcurveto
          4 -37 3 -53 -45 vvcurveto
          52 12 rmoveto
          31 3 32 3 31 vhcurveto
          3 20 24 2 25 hhcurveto
          54 39 -31 -52 -73 -58 -28 -68 -19 -16 2 2 -7 hvcurveto
          -277 -25 -37 callsubr
          42 hmoveto
          1 callsubr
          1 callgsubr
          vhcurveto
          endchar
        </CharString>
        <CharString name="ring">
          -274 543 42 120 42 hstem
          64 42 121 42 vstem
          64 645 -42 callsubr
        </CharString>
        <CharString name="s">
          -218 -15 37 424 37 19 callsubr
          hintmask 11101000
          hintmask 11011000
          -13 callsubr
          hintmask 11101000
          9 callsubr
          hintmask 11100100
          -26 callgsubr
          hintmask 11101000
          7 callsubr
          hintmask 11011000
          -56 -43 42 27 -14 hvcurveto
          endchar
        </CharString>
        <CharString name="scaron">
          -218 -15 37 424 37 76 62 19 callsubr
          hintmask 11010100
          hintmask 11001100
          -13 callsubr
          hintmask 11010100
          9 callsubr
          hintmask 11010010
          -26 callgsubr
          hintmask 11010100
          7 callsubr
          hintmask 11101100
          -56 -43 42 27 -14 hvcurveto
          124 530 -68 callsubr
        </CharString>
        <CharString name="section">
          -107 -128 37 752 37 hstemhm
          59 47 -26 12 9 52 215 52 -49 12 11 47 hintmask 11001100
          hintmask 11001010
          383 578 rmoveto
          3 20 13 27 13 12 rrcurveto
          30 -26 -42 31 -65 hhcurveto
          -118 -60 -81 -83 -55 11 -14 16 -25 hvcurveto
          hintmask 11100100
          -26 -16 -43 -44 -64 -195 309 49 -143 vvcurveto
          -58 -59 -60 -71 vhcurveto
          hintmask 11011100
          -92 -42 60 31 -12 hvcurveto
          -12 hlineto
          -23 -5 -39 -6 -23 vhcurveto
          -23 32 59 -20 50 hhcurveto
          136 74 96 98 43 -14 27 -23 19 hvcurveto
          hintmask 11001001
          23 24 35 50 56 176 -288 -46 146 vvcurveto
          62 57 38 55 vhcurveto
          hintmask 11001010
          56 39 -40 -43 11 hvcurveto
          hintmask 11100001
          23 -337 rmoveto
          -36 -14 -20 -13 -19 vhcurveto
          -20 14 -39 18 -95 41 rrcurveto
          -76 33 -31 26 51 vvcurveto
          32 21 28 17 15 vhcurveto
          15 -13 16 -11 131 -59 rrcurveto
          67 -30 21 -20 -50 vvcurveto
          endchar
        </CharString>
        <CharString name="semicolon">
          354 114 hstem
          82 114 vstem
          30 -26 callsubr
          -25 336 -69 callgsubr
        </CharString>
        <CharString name="seven">
          -51 16 -21 592 69 -69 79 hstemhm
          75 432 hintmask 11010000
          507 657 rmoveto
          -34 -28 -1 -41 hhcurveto
          -55 -93 1 1 -41 hvcurveto
          hintmask 10110000
          -37 1 -44 3 -54 4 rrcurveto
          hintmask 11010000
          2 -14 2 -16 -14 vvcurveto
          -14 -2 -17 -2 -14 vhcurveto
          10 169 120 0 60 hhcurveto
          -70 -123 -159 -268 -125 -201 rrcurveto
          3 12 12 2 12 hhcurveto
          15 11 -2 -3 12 hvcurveto
          109 215 130 228 119 203 rrcurveto
          endchar
        </CharString>
        <CharString name="six">
          -51 -16 32 345 37 242 32 hstem
          63 82 272 88 vstem
          402 669 rmoveto
          2 -11 -9 1 -22 hhcurveto
          -192 4 -106 -182 1 -222 rrcurveto
          -210 105 -78 115 135 87 92 134 153 -127 35 -70 -88 -47 -52 -45 -26 vhcurveto
          -2 hlineto
          122 60 217 155 22 16 -3 -4 14 vhcurveto
          5 4 rlineto
          -448 vmoveto
          -102 -49 -71 -84 -76 -57 71 102 101 61 71 78 86 41 -71 -101 vhcurveto
          endchar
        </CharString>
        <CharString name="slash">
          -23 726 hstem
          -25 328 vstem
          -25 -23 rmoveto
          -33 callsubr
          276 726 rlineto
          -33 callgsubr
          endchar
        </CharString>
        <CharString name="space">
          endchar
        </CharString>
        <CharString name="sterling">
          -51 -5 66 270 37 267 37 hstemhm
          177 82 -63 74 hintmask 11101000
          45 59 rmoveto
          1 -11 1 -11 -10 vvcurveto
          -12 -1 -11 -1 -9 vhcurveto
          2 76 76 3 76 hhcurveto
          79 78 -3 -2 78 hvcurveto
          -2 11 -1 13 13 vvcurveto
          12 1 14 2 14 vhcurveto
          -4 -98 -126 -7 -112 hhcurveto
          2 vlineto
          51 40 47 81 101 vvcurveto
          16 -1 16 -1 14 vhcurveto
          52 47 -1 -1 51 hvcurveto
          -1 8 -1 7 8 vvcurveto
          7 -9 callgsubr
          hintmask 11110000
          -2 -52 -38 -3 -63 hhcurveto
          -2 36 -4 42 54 vvcurveto
          76 48 59 72 41 34 -23 -44 12 vhcurveto
          4 -3 13 22 13 18 12 14 rlinecurve
          36 -24 -56 17 -49 hhcurveto
          -89 -113 -52 -184 -21 2 -23 3 -24 hvcurveto
          -39 -33 1 4 -20 hvcurveto
          2 -7 0 -7 -7 vvcurveto
          -8 0 -7 -2 -8 vhcurveto
          hintmask 11101000
          32 32 1 1 33 hvcurveto
          4 -32 5 -37 -36 vvcurveto
          -101 -23 -66 -114 vhcurveto
          endchar
        </CharString>
        <CharString name="t">
          -15 32 405 37 hstemhm
          78 74 -73 88 hintmask 11100000
          hintmask 11010000
          79 572 rmoveto
          2 -43 1 -43 1 -26 rrcurveto
          hintmask 11100000
          -14 -22 1 2 -30 hvcurveto
          1 -7 1 -6 -7 vvcurveto
          -8 -1 -7 -1 -8 vhcurveto
          2 26 22 0 20 hhcurveto
          -1 -149 -6 -90 -73 vvcurveto
          -78 40 -47 83 25 29 7 8 23 vhcurveto
          24 vlineto
          -4 -13 -21 -3 -11 hhcurveto
          -79 -2 76 75 87 5 157 2 10 hvcurveto
          hintmask 11010000
          24 47 0 -2 35 hvcurveto
          -1 7 0 7 7 vvcurveto
          7 0 24 callsubr
          vhcurveto
          -2 -46 -46 -1 -14 hhcurveto
          2 49 2 49 4 50 rrcurveto
          -5 hlineto
          endchar
        </CharString>
        <CharString name="thorn">
          -4 callgsubr
          269 -20 hstem
          33 callgsubr
          vstem
          65 20 -56 callsubr
          89 hlineto
          92 -73 callsubr
          361 -226 -19 callgsubr
          endchar
        </CharString>
        <CharString name="three">
          -51 -16 32 316 32 276 32 hstemhm
          170 111 47 88 -60 92 hintmask 11100100
          102 558 rmoveto
          7 2 rlineto
          41 14 44 39 54 hhcurveto
          hintmask 11111000
          53 54 -37 -86 -66 -19 -87 -94 -16 -15 2 2 -14 -21 callgsubr
          3 12 18 3 15 hhcurveto
          hintmask 11110100
          83 58 -39 -110 -98 -62 -69 -99 -64 -47 39 28 -24 hvcurveto
          -6 -4 -1 -20 -6 -29 -5 -11 rlinecurve
          -17 36 46 -18 69 hhcurveto
          153 102 91 121 119 -100 32 -67 4 hvcurveto
          6 vlineto
          hintmask 11101000
          59 15 76 54 97 vvcurveto
          103 -86 46 -105 -74 -44 -33 -27 -28 vhcurveto
          endchar
        </CharString>
        <CharString name="threequarters">
          227 -5 150 -37 37 114 25 callsubr
          12 -20 hstemhm
          209 62 -44 66 380 57 hintmask 0110110011000000
          471 29 callsubr
          hintmask 1010110011000000
          -6 callgsubr
          hintmask 0110101011000000
          -65 callgsubr
          -427 -366 -69 callsubr
          -499 -404 -7 callgsubr
          hintmask 0110110101000000
          -35 callsubr
          hintmask 0111010101000000
          21 callgsubr
          hintmask 0110110011000000
          11 callsubr
          hintmask 0111010011000000
          -22 callsubr
        </CharString>
        <CharString name="threesuperior">
          -274 259 25 callsubr
          hstemhm
          211 62 -44 66 hintmask 10110100
          26 280 -7 callgsubr
          hintmask 10111000
          -35 callsubr
          hintmask 11011000
          21 callgsubr
          hintmask 10110100
          11 callsubr
          hintmask 11010100
          -22 callsubr
        </CharString>
        <CharString name="tilde">
          -274 584 107 -61 57 hstemhm
          2 329 14 callsubr
          32 584 rmoveto
          -61 callsubr
          -80 callsubr
          -63 callgsubr
        </CharString>
        <CharString name="trademark">
          343 653 32 6 -20 hstemhm
          159 52 143 47 hintmask 10100000
          599 370 rmoveto
          -2 hlineto
          -52 92 rlineto
          hintmask 01110000
          -44 78 -39 75 -35 76 rrcurveto
          -10 hlineto
          -19 -144 -13 -95 -14 -96 -17 -81 rlinecurve
          -15 callgsubr
          1 64 5 63 8 64 13 111 rcurveline
          2 hlineto
          48 -91 36 -69 40 -69 29 -66 rlinecurve
          8 hlineto
          21 50 50 100 42 74 42 76 rcurveline
          2 hlineto
          14 -108 10 -79 3 -66 2 -54 rlinecurve
          3 10 9 2 10 hhcurveto
          9 10 -2 -3 9 hvcurveto
          -12 80 -16 119 -9 90 -12 127 rcurveline
          -8 hlineto
          -41 -77 -43 -78 -43 -76 rrcurveto
          -491 44 rmoveto
          -107 -3 -69 -2 -53 vhcurveto
          3 10 11 2 10 hhcurveto
          10 11 -2 -3 10 hvcurveto
          -2 79 -3 79 79 vvcurveto
          hintmask 10100000
          141 vlineto
          43 43 -2 -3 43 hvcurveto
          -3 6 -2 6 7 vvcurveto
          6 2 6 3 6 vhcurveto
          -3 -52 -51 -2 -52 hhcurveto
          -52 -51 2 3 -52 hvcurveto
          3 -6 2 -6 -6 vvcurveto
          -7 -2 -6 -3 -6 vhcurveto
          3 43 43 2 43 hhcurveto
          endchar
        </CharString>
        <CharString name="two">
          -51 -5 66 574 37 hstem
          345 92 vstem
          99 524 rmoveto
          7 2 rlineto
          40 7 35 69 85 hhcurveto
          60 52 -46 -99 -137 -45 -67 -280 -276 hvcurveto
          -15 vlineto
          3 72 71 2 72 hhcurveto
          71 72 -2 -3 71 hvcurveto
          -3 12 -2 13 12 vvcurveto
          12 2 13 3 12 vhcurveto
          -4 -55 -75 -4 -95 hhcurveto
          -95 hlineto
          42 58 90 87 50 51 rrcurveto
          84 86 42 61 91 vvcurveto
          124 -85 53 -105 -83 -58 -31 -68 -42 vhcurveto
          endchar
        </CharString>
        <CharString name="twosuperior">
          -274 260 47 341 24 hstem
          228 66 vstem
          68 583 -66 callgsubr
        </CharString>
        <CharString name="u">
          -99 callgsubr
          endchar
        </CharString>
        <CharString name="uacute">
          -99 callgsubr
          134 410 -101 callsubr
        </CharString>
        <CharString name="ucircumflex">
          -24 callsubr
          211 62 hstemhm
          76 74 249 74 hintmask 10111100
          -60 callsubr
          hintmask 01111100
          -96 callgsubr
          hintmask 10111100
          -90 callgsubr
          322 410 -89 callgsubr
        </CharString>
        <CharString name="udieresis">
          -24 callsubr
          133 102 hstemhm
          76 74 -21 18 callsubr
          -29 74 hintmask 10111001
          -60 callsubr
          hintmask 01111001
          -96 callgsubr
          hintmask 10111001
          -90 callgsubr
          hintmask 10110110
          250 488 -104 callgsubr
        </CharString>
        <CharString name="ugrave">
          -99 callgsubr
          229 410 -97 callsubr
        </CharString>
        <CharString name="underscore">
          -107 -130 50 hstem
          0 500 vstem
          500 -130 rmoveto
          50 -500 -50 vlineto
          endchar
        </CharString>
        <CharString name="v">
          -107 -5 88 -67 -8 callsubr
          hstemhm
          21 458 hintmask 01110000
          215 -5 rmoveto
          3 11 10 10 callsubr
          10 11 -2 -3 10 hvcurveto
          57 159 73 159 71 160 rrcurveto
          -3 -10 -10 -2 -11 hhcurveto
          -10 -11 2 3 -10 hvcurveto
          hintmask 10110000
          -47 -130 -52 -151 -54 -109 -58 131 -50 129 -41 130 rrcurveto
          -3 -15 -14 15 callsubr
          -17 3 callgsubr
          -17 hvcurveto
          hintmask 01110000
          73 -160 60 -159 61 -159 rrcurveto
          endchar
        </CharString>
        <CharString name="w">
          171 -5 95 -74 -21 371 107 28 callsubr
          18 742 hintmask 01011000
          193 -5 rmoveto
          2 9 10 3 9 hhcurveto
          9 10 -3 -2 9 hvcurveto
          hintmask 01101000
          37 121 62 170 33 80 53 -130 41 -120 34 -121 rrcurveto
          2 7 10 3 9 hhcurveto
          9 9 -3 -2 8 hvcurveto
          57 159 67 159 75 160 rrcurveto
          -3 -9 -11 24 callgsubr
          -11 -10 -8 callgsubr
          hintmask 10011000
          -44 -126 -64 -171 -34 -86 -48 133 -46 124 -33 126 rrcurveto
          -3 -10 -8 24 callgsubr
          -10 -10 2 3 -10 hvcurveto
          -37 -125 -64 -182 -31 -76 -52 133 -42 125 -34 125 rrcurveto
          -3 -15 -16 15 callsubr
          -16 -15 2 3 -16 hvcurveto
          hintmask 01011000
          66 -159 78 -214 31 -105 rrcurveto
          endchar
        </CharString>
        <CharString name="x">
          -107 34 callgsubr
          hstem
          25 450 vstem
          259 286 rmoveto
          -46 62 -43 62 -38 63 9 callgsubr
          64 -82 61 -81 59 -81 -60 -78 -61 -78 -64 -78 rrcurveto
          3 11 12 -19 callsubr
          45 68 48 68 49 68 48 -68 47 -68 44 -68 rrcurveto
          3 17 17 2 17 hhcurveto
          17 27 callsubr
          17 hvcurveto
          -68 87 -65 88 -60 87 59 72 61 71 64 73 rrcurveto
          -3 -12 -11 -2 -11 hhcurveto
          -12 -11 2 3 -12 hvcurveto
          -44 -63 -46 -62 -48 -62 rrcurveto
          endchar
        </CharString>
        <CharString name="y">
          -71 callsubr
          endchar
        </CharString>
        <CharString name="yacute">
          -71 callsubr
          -40 565 -101 callsubr
        </CharString>
        <CharString name="ydieresis">
          -107 -247 -21 741 -20 133 102 hstem
          101 18 callsubr
          -84 callsubr
          76 643 -104 callgsubr
        </CharString>
        <CharString name="yen">
          -51 16 -21 212 37 87 37 317 -20 hstem
          236 78 vstem
          236 244 rmoveto
          -57 -57 0 1 -57 -21 callgsubr
          2 33 callsubr
          -71 -2 -70 -5 -71 vhcurveto
          3 15 16 2 15 hhcurveto
          15 16 -51 callsubr
          -5 65 -2 71 76 vvcurveto
          58 58 -2 -2 58 hvcurveto
          -16 callsubr
          -1 35 callgsubr
          87 vlineto
          58 58 -2 -1 58 hvcurveto
          -16 callsubr
          -1 -54 -54 -1 -55 hhcurveto
          79 118 80 121 59 78 rrcurveto
          -3 -11 -12 -18 callsubr
          -50 -93 -63 -101 -64 -99 -59 97 -89 149 -19 47 9 callgsubr
          69 -106 66 -106 67 -105 rrcurveto
          -54 -54 1 1 -54 -21 callgsubr
          1 33 callsubr
          endchar
        </CharString>
        <CharString name="z">
          -107 -5 42 394 42 -70 callsubr
          endchar
        </CharString>
        <CharString name="zcaron">
          -107 -5 42 394 42 86 62 -70 callsubr
          217 612 -68 callsubr
        </CharString>
        <CharString name="zero">
          -51 -16 32 624 32 hstem
          44 82 304 82 vstem
          126 328 rmoveto
          189 38 123 114 114 38 -135 -177 -177 -38 -135 -114 -114 -38 135 177 vhcurveto
          -82 hmoveto
          -188 42 -156 192 162 72 162 182 188 -42 156 -192 -174 -60 -156 -188 vhcurveto
          endchar
        </CharString>
      <CharString index="0">
        330 698 rmoveto
        -102 -236 -104 -233 -107 -234 rrcurveto
        -63 callsubr
        13 hvcurveto
        17 63 38 102 42 103 rrcurveto
        1 41 40 1 41 hhcurveto
        44 44 -1 -1 43 hvcurveto
        36 -89 48 -110 19 -69 rrcurveto
        3 18 17 2 18 hhcurveto
        18 27 callsubr
        18 hvcurveto
        -53 107 -150 364 -98 232 rrcurveto
        78 -389 rmoveto
        -1 -37 -38 -1 -37 -35 -38 2 -35 hhcurveto
        109 254 rlineto
        return
      </CharString>
      <CharString index="1">
        -28 23 -23 28 28 23 23 28 28 -23 23 -28 -28 -23 -23 -28 vhcurveto
        return
      </CharString>
      <CharString index="2">
        35 220 rmoveto
        -133 99 -102 144 -17 callsubr
        vhcurveto
        -94 callsubr
        -147 -82 -101 -162 vhcurveto
        231 231 -77 callgsubr
        return
      </CharString>
      <CharString index="3">
        -98 callsubr
        -96 callsubr
      </CharString>
      <CharString index="4">
        hstem
        35 88 266 82 vstem
        -105 callgsubr
        return
      </CharString>
      <CharString index="5">
        hstem
        17 633 vstem
        -107 callgsubr
        return
      </CharString>
      <CharString index="6">
        35 234 rmoveto
        -65 callsubr
        182 -127 67 -116 -45 callsubr
        vhcurveto
        88 hmoveto
        -62 callsubr
        -61 callgsubr
        vhcurveto
        return
      </CharString>
      <CharString index="7">
        98 vstem
        -104 callsubr
        return
      </CharString>
      <CharString index="8">
        -24 callsubr
        hstemhm
        76 74 249 74 hintmask 10111000
        -60 callsubr
        hintmask 01111000
        -96 callgsubr
        hintmask 10111000
        -90 callgsubr
        return
      </CharString>
      <CharString index="9">
        693 340 rmoveto
        -222 -120 -99 -157 -156 -62 callgsubr
        156 157 120 -99 -222 vhcurveto
        -651 hmoveto
        -227 154 -131 220 return
      </CharString>
      <CharString index="10">
        -93 callgsubr
        172 vlineto
        -93 callsubr
        return
      </CharString>
      <CharString index="11">
        -28 0 -29 -2 -29 vhcurveto
        3 13 13 2 13 hhcurveto
        13 13 2 callgsubr
        -3 56 -1 59 59 vvcurveto
        106 1 94 6 104 vhcurveto
        -3 -13 -13 -3 callgsubr
        -13 -28 callgsubr
        2 -48 0 -62 -54 vvcurveto
        return
      </CharString>
      <CharString index="12">
        -34 4 22 -28 43 hhcurveto
        26 24 8 6 14 hvcurveto
        22 vlineto
        -4 -7 -8 0 -6 hhcurveto
        -39 0 41 33 hvcurveto
        84 4 74 75 vvcurveto
        89 -66 59 -96 -53 -48 -13 -45 -60 vhcurveto
        return
      </CharString>
      <CharString index="13">
        hstem
        42 98 553 -100 callgsubr
        return
      </CharString>
      <CharString index="14">
        -85 callgsubr
        -4 86 -4 87 86 vvcurveto
        return
      </CharString>
      <CharString index="15">
        hintmask 10110110
        -75 callsubr
        hintmask 10111010
        -68 callgsubr
        hintmask 01110110
        -95 callgsubr
        hintmask 10111010
        -75 callgsubr
        return
      </CharString>
      <CharString index="16">
        98 254 rmoveto
        -97 callgsubr
        return
      </CharString>
      <CharString index="17">
        -90 callsubr
        1 -56 1 -56 -47 vvcurveto
        -49 -3 -46 -70 vvcurveto
        return
      </CharString>
      <CharString index="18">
        rmoveto
        37 hlineto
        -123 167 rlineto
        -67 hlineto
        -123 -167 rlineto
        37 hlineto
        119 105 rlineto
        endchar
      </CharString>
      <CharString index="19">
        hstem
        -10 callsubr
        vstem
        -101 callgsubr
        return
      </CharString>
      <CharString index="20">
        vhcurveto
        -3 -17 -16 -2 -16 hhcurveto
        -16 3 callgsubr
        -17 -66 callsubr
        return
      </CharString>
      <CharString index="21">
        -31 26 -26 31 31 26 26 31 31 -26 26 -31 -31 -26 -26 -31 vhcurveto
        return
      </CharString>
      <CharString index="22">
        -86 -4 -87 -4 -86 -81 callsubr
        return
      </CharString>
      <CharString index="23">
        -2 callgsubr
        vstem
        -91 callgsubr
        return
      </CharString>
      <CharString index="24">
        hstem
        102 74 vstem
        -99 callsubr
        return
      </CharString>
      <CharString index="25">
        vhcurveto
        -3 -15 -76 callsubr
        return
      </CharString>
      <CharString index="26">
        rmoveto
        18 -7 125 212 rlineto
        7 13 8 13 16 vvcurveto
        24 -21 10 -16 -27 -12 -21 -17 -5 vhcurveto
        return
      </CharString>
      <CharString index="27">
        3 17 16 2 16 hhcurveto
        16 16 -2 -3 17 hvcurveto
        return
      </CharString>
      <CharString index="28">
        -48 callgsubr
        92 vvcurveto
        return
      </CharString>
      <CharString index="29">
        -30 callsubr
        -88 callgsubr
        return
      </CharString>
      <CharString index="30">
        rmoveto
        104 19 -102 -71 hvcurveto
        -1 -42 -47 -2 -44 hhcurveto
        -42 -47 2 1 -41 hvcurveto
        72 5 37 101 98 hhcurveto
        return
      </CharString>
      <CharString index="31">
        -36 callgsubr
        hintmask 10111010
        -92 callgsubr
        return
      </CharString>
      <CharString index="32">
        243 -328 rmoveto
        -37 -23 -44 -33 -51 hhcurveto
        -44 -43 32 63 109 140 -7 69 23 hvcurveto
        return
      </CharString>
      <CharString index="33">
        rmoveto
        11 hlineto
        43 23 50 25 53 hhcurveto
        80 30 -59 -67 -39 -5 -8 -145 -23 hvcurveto
        return
      </CharString>
      <CharString index="34">
        34 callgsubr
        -83 callgsubr
        return
      </CharString>
      <CharString index="35">
        25 callgsubr
        -103 callgsubr
        return
      </CharString>
      <CharString index="36">
        4 21 callsubr
        265 82 vstem
        -86 callsubr
        return
      </CharString>
      <CharString index="37">
        hhcurveto
        -15 -15 2 3 -15 hvcurveto
        return
      </CharString>
      <CharString index="38">
        rmoveto
        -77 callsubr
      </CharString>
      <CharString index="39">
        -59 callgsubr
        68 41 25 48 48 vhcurveto
        return
      </CharString>
      <CharString index="40">
        -61 vlineto
        -77 -5 -73 -2 -73 vhcurveto
        3 14 13 15 callgsubr
        13 -51 callsubr
        -2 43 0 42 44 68 4 60 57 vvcurveto
        138 -86 36 -74 -72 -51 -33 -57 -37 vhcurveto
        -2 return
      </CharString>
      <CharString index="41">
        rmoveto
        5 2 rlineto
        24 4 23 39 55 hhcurveto
        39 34 -26 -59 -103 -82 -64 -129 -121 hvcurveto
        -15 vlineto
        3 46 47 2 46 hhcurveto
        47 46 -2 -3 47 39 callgsubr
        -2 8 9 vvcurveto
        9 2 8 2 9 vhcurveto
        -5 -58 -83 0 -60 hhcurveto
        -2 5 rlineto
        175 154 26 36 64 vvcurveto
        74 -56 32 -74 -54 -37 -18 -41 -28 vhcurveto
        endchar
      </CharString>
      <CharString index="42">
        -2 38 -2 37 38 vvcurveto
        24 19 -2 -2 15 hvcurveto
        -2 8 -2 8 8 vvcurveto
        7 2 8 2 8 vhcurveto
        -4 -15 -24 -2 -19 hhcurveto
        85 0 86 5 85 vhcurveto
        -2 -7 -9 24 callgsubr
        -11 -8 2 2 -7 hvcurveto
        -72 -92 -70 -91 -70 -92 rrcurveto
        202 19 rmoveto
        -139 hlineto
        -2 5 39 64 52 63 48 64 rlinecurve
        2 -3 rlineto
        return
      </CharString>
      <CharString index="43">
        hvcurveto
        -2 10 -1 -28 callsubr
        1 return
      </CharString>
      <CharString index="44">
        18 -37 -13 5 -23 hhcurveto
        -64 -32 -56 -47 42 callsubr
      </CharString>
      <CharString index="45">
        -120 99 222 -31 callgsubr
        return
      </CharString>
      <CharString index="46">
        -112 -37 -105 -118 -118 -37 105 112 return
      </CharString>
      <CharString index="47">
        -32 callsubr
        -11 callsubr
        return
      </CharString>
      <CharString index="48">
        -87 -14 -54 -43 -80 vvcurveto
        -76 66 -47 67 return
      </CharString>
      <CharString index="49">
        1 16 2 17 3 16 -5 3 rcurveline
        -59 callsubr
        71 137 123 49 93 121 63 46 -44 -34 19 hvcurveto
        5 callgsubr
        rrcurveto
        23 -25 -63 21 -73 hhcurveto
        -128 -127 -76 -173 hvcurveto
        return
      </CharString>
      <CharString index="50">
        283 rmoveto
        -79 callgsubr
        return
      </CharString>
      <CharString index="51">
        -122 123 -221 241 -163 177 rrcurveto
        -16 hlineto
        3 -45 0 -97 -126 vvcurveto
        -132 -13 -256 -8 -47 vhcurveto
        -63 callsubr
        11 hvcurveto
        -5 40 -4 211 86 vvcurveto
        106 2 60 1 37 vhcurveto
        return
      </CharString>
      <CharString index="52">
        221 -315 -78 187 vvcurveto
        73 54 51 75 75 30 -57 -37 14 vhcurveto
        12 hlineto
        8 38 7 23 12 23 rrcurveto
        32 -40 -45 15 -63 hhcurveto
        -133 -84 -78 -111 hvcurveto
        -235 315 79 -184 vvcurveto
        -80 -54 -65 -89 vhcurveto
        return
      </CharString>
      <CharString index="53">
        -4 4 rlineto
        -29 -38 -70 -54 -95 hhcurveto
        -157 -62 callgsubr
        157 94 68 -58 -31 28 hvcurveto
        6 2 4 21 7 39 10 18 rlinecurve
        25 -54 -77 21 -86 hhcurveto
        -221 -44 callgsubr
        return
      </CharString>
      <CharString index="54">
        254 -64 callsubr
        return
      </CharString>
      <CharString index="55">
        -1 callgsubr
        45 44 2 45 45 44 -5 45 hhcurveto
        158 206 92 267 206 -96 125 -234 hvcurveto
        -50 -51 -5 -50 hhcurveto
        -50 -51 2 3 -50 -66 callsubr
        endchar
      </CharString>
      <CharString index="56">
        7 callgsubr
        -31 32 366 -21 68 42 return
      </CharString>
      <CharString index="57">
        402 279 rmoveto
        -67 callgsubr
        hlineto
        return
      </CharString>
      <CharString index="58">
        -59 -2 -60 hhcurveto
        -60 -59 2 3 -60 hvcurveto
        4 return
      </CharString>
      <CharString index="59">
        -79 callsubr
        67 -2 129 return
      </CharString>
      <CharString index="60">
        rmoveto
        -18 7 -125 -212 rlineto
        -7 -13 -8 -13 -16 vvcurveto
        -24 21 -10 16 27 12 21 17 5 vhcurveto
        return
      </CharString>
      <CharString index="61">
        4 -87 -86 vvcurveto
        return
      </CharString>
      <CharString index="62">
        -220 -44 callgsubr
        return
      </CharString>
      <CharString index="63">
        -154 -131 -227 return
      </CharString>
      <CharString index="64">
        675 -18 rmoveto
        -1 45 -2 221 102 vvcurveto
        78 10 198 6 59 vhcurveto
        -3 -11 -10 -18 callsubr
        8 -154 0 -195 -179 vvcurveto
        return
      </CharString>
      <CharString index="65">
        72 2 71 4 64 vhcurveto
        5 41 54 5 59 hhcurveto
        164 120 -57 -232 -264 -160 -58 -147 -51 -52 4 6 -28 hvcurveto
        -4 69 -2 72 71 vvcurveto
        -82 return
      </CharString>
      <CharString index="66">
        42 hmoveto
        33 27 27 34 33 27 -27 -33 -33 -27 -27 -34 -33 -27 27 33 vhcurveto
        endchar
      </CharString>
      <CharString index="67">
        -7 19 29 -10 41 hhcurveto
        64 55 29 56 43 -31 28 -52 -13 -8 -2 -3 -8 hvcurveto
        return
      </CharString>
      <CharString index="68">
        221 154 131 227 return
      </CharString>
      <CharString index="69">
        -1 callgsubr
        62 61 2 62 hhcurveto
        61 62 -2 -3 61 6 callgsubr
        10 37 callgsubr
        10 3 10 vhcurveto
        -13 -100 -82 0 -94 hhcurveto
        -1 return
      </CharString>
      <CharString index="70">
        rrcurveto
        -3 -11 18 callgsubr
        -11 -8 callgsubr
        return
      </CharString>
      <CharString index="71">
        -51 callgsubr
        -23 callgsubr
        return
      </CharString>
      <CharString index="72">
        -6 41 -6 52 24 vvcurveto
        52 23 48 59 20 19 -5 -10 16 vhcurveto
        endchar
      </CharString>
      <CharString index="73">
        58 0 -8 58 hvcurveto
        -3 12 -2 12 12 vvcurveto
        13 2 12 3 12 vhcurveto
        return
      </CharString>
      <CharString index="74">
        -3 -9 -8 -2 -9 hhcurveto
        -9 -8 2 3 -9 hvcurveto
        return
      </CharString>
      <CharString index="75">
        226 -18 37 642 37 return
      </CharString>
      <CharString index="76">
        222 120 99 return
      </CharString>
      <CharString index="77">
        -107 -5 47 295 42 259 47 return
      </CharString>
      <CharString index="78">
        hlineto
        25 121 3 9 7 15 rrcurveto
        -2 -7 27 callgsubr
        hhcurveto
        -7 -7 1 2 -7 hvcurveto
        -3 -16 -5 -28 -21 -101 rrcurveto
        return
      </CharString>
      <CharString index="79">
        2 3 -14 hvcurveto
        return
      </CharString>
      <CharString index="80">
        6 callgsubr
        9 37 callgsubr
        9 3 10 vhcurveto
        -5 -32 -69 -6 -146 hhcurveto
        -2 65 -3 66 65 vvcurveto
        return
      </CharString>
      <CharString index="81">
        45 33 -30 -32 10 hvcurveto
        12 hlineto
        2 15 11 37 11 19 rrcurveto
        10 -31 -31 18 -49 hhcurveto
        -106 -60 -64 -87 hvcurveto
        return
      </CharString>
      <CharString index="82">
        -89 callsubr
        85 vlineto
        return
      </CharString>
      <CharString index="83">
        5 callsubr
        -6 -10 callgsubr
        return
      </CharString>
      <CharString index="84">
        -9 callsubr
        234 74 return
      </CharString>
      <CharString index="85">
        64 128 rmoveto
        -4 -38 -3 -20 -12 -31 rrcurveto
        -28 35 47 -29 83 hhcurveto
        154 91 103 122 hvcurveto
        return
      </CharString>
      <CharString index="86">
        32 callsubr
        -7 12 callsubr
        return
      </CharString>
      <CharString index="87">
        vhcurveto
        3 14 14 15 callgsubr
        14 23 callsubr
        return
      </CharString>
      <CharString index="88">
        rmoveto
        -121 -45 -95 -96 -95 -51 71 137 115 41 96 108 65 73 -43 -160 vhcurveto
        return
      </CharString>
      <CharString index="89">
        42 callgsubr
        268 46 389 -20 return
      </CharString>
      <CharString index="90">
        2 -129 -92 vvcurveto
        return
      </CharString>
      <CharString index="91">
        vhcurveto
        -3 -14 -14 -2 return
      </CharString>
      <CharString index="92">
        3 8 8 2 8 hhcurveto
        7 8 -2 -3 8 hvcurveto
        return
      </CharString>
      <CharString index="93">
        410 288 28 callsubr
        return
      </CharString>
      <CharString index="94">
        -2 -3 11 hvcurveto
        return
      </CharString>
      <CharString index="95">
        hlineto
        32 37 -1 -5 28 hvcurveto
        3 14 7 30 6 13 rrcurveto
        -6 -31 -39 0 -37 hhcurveto
        return
      </CharString>
      <CharString index="96">
        9 -2 10 9 vvcurveto
        9 2 10 return
      </CharString>
      <CharString index="97">
        vvcurveto
        27 callgsubr
        -1 return
      </CharString>
      <CharString index="98">
        1 24 callsubr
        vhcurveto
        return
      </CharString>
      <CharString index="99">
        2 3 -11 hvcurveto
        return
      </CharString>
      <CharString index="100">
        rmoveto
        -11 23 32 -10 48 hhcurveto
        100 66 51 76 72 -65 20 -45 3 hvcurveto
        2 vlineto
        return
      </CharString>
      <CharString index="101">
        -38 -2 -37 -3 -38 vhcurveto
        3 11 11 -19 callsubr
        return
      </CharString>
      <CharString index="102">
        4 callsubr
        -57 2 return
      </CharString>
      <CharString index="103">
        -51 -247 -21 253 37 419 42 return
      </CharString>
      <CharString index="104">
        15 callsubr
        -15 return
      </CharString>
      <CharString index="105">
        hstem
        98 82 return
      </CharString>
      <CharString index="106">
        -4 callsubr
        3 return
      </CharString>
      <CharString index="107">
        10 vvcurveto
        10 return
      </CharString>
      <CharString index="108">
        -177 -139 31 callgsubr
        144 177 return
      </CharString>
      <CharString index="109">
        -2 -3 13 hvcurveto
        return
      </CharString>
      <CharString index="110">
        -16 2 3 return
      </CharString>
      <CharString index="111">
        -274 -121 37 344 20 -20 42 344 37 hstemhm
        return
      </CharString>
      <CharString index="112">
        8 hlineto
        5 24 8 22 9 20 return
      </CharString>
      <CharString index="113">
        hvcurveto
        -3 10 -2 return
      </CharString>
      <CharString index="114">
        -107 -15 42 return
      </CharString>
      <CharString index="115">
        171 -182 182 -192 152 -179 rrcurveto
        return
      </CharString>
      <CharString index="116">
        rrcurveto
        -3 -18 -17 -2 -18 hhcurveto
        -18 -17 2 3 -18 hvcurveto
        return
      </CharString>
      <CharString index="117">
        rrcurveto
        -3 -12 -13 -2 -12 hhcurveto
        -12 -13 2 3 -12 hvcurveto
        return
      </CharString>
      <CharString index="118">
        3 16 15 2 16 hhcurveto
        16 15 -2 -3 16 hvcurveto
        return
      </CharString>
      <CharString index="119">
        3 12 11 -23 callsubr
        11 -2 -3 12 hvcurveto
        return
      </CharString>
      <CharString index="120">
        rmoveto
        26 3 27 1 27 vhcurveto
        return
      </CharString>
      <CharString index="121">
        6 callsubr
        52 -10 -20 return
      </CharString>
      <CharString index="122">
        40 callgsubr
        14 return
      </CharString>
      <CharString index="123">
        171 3 -21 34 -3 callsubr
        33 -20 return
      </CharString>
      <CharString index="124">
        -107 -5 47 643 34 callsubr
        98 return
      </CharString>
      <CharString index="125">
        -11 2 callsubr
        return
      </CharString>
      <CharString index="126">
        rmoveto
        41 callgsubr
        38 callsubr
        -2 rcurveline
        return
      </CharString>
      <CharString index="127">
        42 -2 callgsubr
        444 98 vstem
        180 return
      </CharString>
      <CharString index="128">
        -39 -15 -50 -56 -10 -12 2 5 -11 vhcurveto
        return
      </CharString>
      <CharString index="129">
        2 4 2 5 5 hvcurveto
        return
      </CharString>
      <CharString index="130">
        rmoveto
        52 288 -52 hlineto
        return
      </CharString>
      <CharString index="131">
        -2 -10 hhcurveto
        return
      </CharString>
      <CharString index="132">
        7 callgsubr
        213 38 173 32 return
      </CharString>
      <CharString index="133">
        2 -3 -19 -5 -20 -7 -18 15 3 return
      </CharString>
      <CharString index="134">
        -7 -1 -7 return
      </CharString>
      <CharString index="135">
        -1 -1 -1 return
      </CharString>
      <CharString index="136">
        -73 hlineto
        -22 -9 -39 -10 -21 vhcurveto
        return
      </CharString>
      <CharString index="137">
        57 -57 107 -61 57 4 -20 hstemhm
        return
      </CharString>
      <CharString index="138">
        -144 -177 -177 -139 return
      </CharString>
      <CharString index="139">
        hstemhm
        62 78 -76 12 301 78 return
      </CharString>
      <CharString index="140">
        65 74 287 88 return
      </CharString>
      <CharString index="141">
        16 -8 callsubr
        return
      </CharString>
      <CharString index="142">
        -58 -58 0 -58 hhcurveto
        return
      </CharString>
      <CharString index="143">
        -18 42 637 37 return
      </CharString>
      <CharString index="144">
        0 callgsubr
        2 return
      </CharString>
      <CharString index="145">
        -20 -2 callgsubr
        return
      </CharString>
      <CharString index="146">
        hvcurveto
        -2 9 return
      </CharString>
      <CharString index="147">
        2 14 hhcurveto
        return
      </CharString>
      <CharString index="148">
        1 -1 1 return
      </CharString>
      <CharString index="149">
        60 16 -21 return
      </CharString>
</ttFont>
